%TF.GenerationSoftware,KiCad,Pcbnew,8.0.0*%
%TF.CreationDate,2026-09-16T17:55:28-04:00*%
%TF.ProjectId,EchoSafe_RearLeft,4563686f-5361-4666-955f-526561724c65,rev?*%
%TF.SameCoordinates,Original*%
%TF.FileFunction,Copper,L2,Bot*%
%TF.FilePolarity,Positive*%
%FSLAX46Y46*%
G04 Gerber Fmt 4.6, Leading zero omitted, Abs format (unit mm)*
G04 Created by KiCad (PCBNEW 8.0.0) date 2026-09-16 17:55:28*
%MOMM*%
%LPD*%
G01*
G04 APERTURE LIST*
%TA.AperFunction,ViaPad*%
%ADD10C,0.600000*%
%TD*%
%TA.AperFunction,Conductor*%
%ADD11C,0.200000*%
%TD*%
G04 APERTURE END LIST*
D10*
%TO.N,MIC_BOT_WS*%
X24000000Y-28712400D03*
X33715000Y-7149300D03*
%TO.N,MIC_BOT_SCK*%
X31788000Y-9064400D03*
X25302000Y-28719900D03*
%TO.N,MIC_BOT_SD*%
X26000000Y-6095800D03*
X25979400Y-28198800D03*
%TO.N,GND*%
X33521900Y-8316900D03*
X28000000Y-28691900D03*
%TO.N,MOTOR_BL_OUTN*%
X18947700Y-24306700D03*
X28950700Y-28698500D03*
%TD*%
D11*
%TO.N,MIC_BOT_WS*%
X32801700Y-22795600D02*
X26268800Y-29328500D01*
X33715000Y-7149300D02*
X32801700Y-8062600D01*
X26268800Y-29328500D02*
X24616100Y-29328500D01*
X32801700Y-8062600D02*
X32801700Y-22795600D01*
X24616100Y-29328500D02*
X24000000Y-28712400D01*
%TO.N,MIC_BOT_SCK*%
X26104000Y-28925300D02*
X25507400Y-28925300D01*
X31386300Y-9466100D02*
X31386300Y-23643000D01*
X31386300Y-23643000D02*
X26104000Y-28925300D01*
X31788000Y-9064400D02*
X31386300Y-9466100D01*
X25507400Y-28925300D02*
X25302000Y-28719900D01*
%TO.N,MIC_BOT_SD*%
X26000000Y-6095800D02*
X26000000Y-28178200D01*
X26000000Y-28178200D02*
X25979400Y-28198800D01*
%TO.N,GND*%
X33521900Y-23170000D02*
X33521900Y-8316900D01*
X28000000Y-28691900D02*
X33521900Y-23170000D01*
%TO.N,MOTOR_BL_OUTN*%
X18947700Y-24306700D02*
X18947700Y-24561900D01*
X27901400Y-29747800D02*
X28950700Y-28698500D01*
X24133600Y-29747800D02*
X27901400Y-29747800D01*
X18947700Y-24561900D02*
X24133600Y-29747800D01*
%TD*%
M02*
