%TF.GenerationSoftware,KiCad,Pcbnew,8.0.0*%
%TF.CreationDate,2026-09-16T17:54:58-04:00*%
%TF.ProjectId,EchoSafe_RevA,4563686f-5361-4666-955f-526576412e6b,rev?*%
%TF.SameCoordinates,Original*%
%TF.FileFunction,Copper,L1,Top*%
%TF.FilePolarity,Positive*%
%FSLAX46Y46*%
G04 Gerber Fmt 4.6, Leading zero omitted, Abs format (unit mm)*
G04 Created by KiCad (PCBNEW 8.0.0) date 2026-09-16 17:54:58*
%MOMM*%
%LPD*%
G01*
G04 APERTURE LIST*
G04 Aperture macros list*
%AMRoundRect*
0 Rectangle with rounded corners*
0 $1 Rounding radius*
0 $2 $3 $4 $5 $6 $7 $8 $9 X,Y pos of 4 corners*
0 Add a 4 corners polygon primitive as box body*
4,1,4,$2,$3,$4,$5,$6,$7,$8,$9,$2,$3,0*
0 Add four circle primitives for the rounded corners*
1,1,$1+$1,$2,$3*
1,1,$1+$1,$4,$5*
1,1,$1+$1,$6,$7*
1,1,$1+$1,$8,$9*
0 Add four rect primitives between the rounded corners*
20,1,$1+$1,$2,$3,$4,$5,0*
20,1,$1+$1,$4,$5,$6,$7,0*
20,1,$1+$1,$6,$7,$8,$9,0*
20,1,$1+$1,$8,$9,$2,$3,0*%
G04 Aperture macros list end*
%TA.AperFunction,SMDPad,CuDef*%
%ADD10RoundRect,0.225000X-0.225000X-0.250000X0.225000X-0.250000X0.225000X0.250000X-0.225000X0.250000X0*%
%TD*%
%TA.AperFunction,SMDPad,CuDef*%
%ADD11RoundRect,0.075000X-0.650000X-0.075000X0.650000X-0.075000X0.650000X0.075000X-0.650000X0.075000X0*%
%TD*%
%TA.AperFunction,SMDPad,CuDef*%
%ADD12RoundRect,0.200000X-0.200000X-0.275000X0.200000X-0.275000X0.200000X0.275000X-0.200000X0.275000X0*%
%TD*%
%TA.AperFunction,SMDPad,CuDef*%
%ADD13R,0.812800X0.254000*%
%TD*%
%TA.AperFunction,SMDPad,CuDef*%
%ADD14R,0.254000X0.812800*%
%TD*%
%TA.AperFunction,SMDPad,CuDef*%
%ADD15R,1.244600X1.244600*%
%TD*%
%TA.AperFunction,SMDPad,CuDef*%
%ADD16RoundRect,0.100000X-0.637500X-0.100000X0.637500X-0.100000X0.637500X0.100000X-0.637500X0.100000X0*%
%TD*%
%TA.AperFunction,SMDPad,CuDef*%
%ADD17RoundRect,0.150000X-0.150000X-0.625000X0.150000X-0.625000X0.150000X0.625000X-0.150000X0.625000X0*%
%TD*%
%TA.AperFunction,SMDPad,CuDef*%
%ADD18RoundRect,0.250000X-0.350000X-0.650000X0.350000X-0.650000X0.350000X0.650000X-0.350000X0.650000X0*%
%TD*%
%TA.AperFunction,ComponentPad*%
%ADD19C,1.700000*%
%TD*%
%TA.AperFunction,ComponentPad*%
%ADD20R,1.700000X1.700000*%
%TD*%
%TA.AperFunction,ComponentPad*%
%ADD21O,1.700000X1.700000*%
%TD*%
%TA.AperFunction,ComponentPad*%
%ADD22RoundRect,0.250000X-0.350000X-0.625000X0.350000X-0.625000X0.350000X0.625000X-0.350000X0.625000X0*%
%TD*%
%TA.AperFunction,ComponentPad*%
%ADD23O,1.200000X1.750000*%
%TD*%
%TA.AperFunction,SMDPad,CuDef*%
%ADD24R,1.498600X0.812800*%
%TD*%
%TA.AperFunction,SMDPad,CuDef*%
%ADD25R,0.812800X1.498600*%
%TD*%
%TA.AperFunction,SMDPad,CuDef*%
%ADD26R,0.889000X0.889000*%
%TD*%
%TA.AperFunction,ViaPad*%
%ADD27C,0.600000*%
%TD*%
%TA.AperFunction,Conductor*%
%ADD28C,0.200000*%
%TD*%
%TA.AperFunction,Conductor*%
%ADD29C,0.150000*%
%TD*%
G04 APERTURE END LIST*
D10*
%TO.P,C3,1*%
%TO.N,VSYS*%
X50225000Y-56000000D03*
%TO.P,C3,2*%
%TO.N,GND*%
X51775000Y-56000000D03*
%TD*%
D11*
%TO.P,U6,1*%
%TO.N,NET_U6_REG*%
X42800000Y-43000000D03*
%TO.P,U6,2*%
%TO.N,MUX_CH1_SCL*%
X42800000Y-43500000D03*
%TO.P,U6,3*%
%TO.N,MUX_CH1_SDA*%
X42800000Y-44000000D03*
%TO.P,U6,4*%
%TO.N,GND*%
X42800000Y-44500000D03*
%TO.P,U6,5*%
%TO.N,3V3_SYS*%
X42800000Y-45000000D03*
%TO.P,U6,6*%
X47200000Y-45000000D03*
%TO.P,U6,7*%
%TO.N,MOTOR_TR_OUTP*%
X47200000Y-44500000D03*
%TO.P,U6,8*%
%TO.N,GND*%
X47200000Y-44000000D03*
%TO.P,U6,9*%
%TO.N,MOTOR_TR_OUTN*%
X47200000Y-43500000D03*
%TO.P,U6,10*%
%TO.N,3V3_SYS*%
X47200000Y-43000000D03*
%TD*%
D12*
%TO.P,R1,1*%
%TO.N,EN*%
X10175000Y-30000000D03*
%TO.P,R1,2*%
%TO.N,3V3_SYS*%
X11825000Y-30000000D03*
%TD*%
D13*
%TO.P,U2,1*%
%TO.N,SPK_DIN*%
X28552200Y-67249999D03*
%TO.P,U2,2*%
%TO.N,N/C*%
X28552200Y-67750000D03*
%TO.P,U2,3*%
%TO.N,GND*%
X28552200Y-68250000D03*
%TO.P,U2,4*%
%TO.N,3V3_SYS*%
X28552200Y-68750001D03*
D14*
%TO.P,U2,5*%
%TO.N,N/C*%
X29249999Y-69447800D03*
%TO.P,U2,6*%
X29750000Y-69447800D03*
%TO.P,U2,7*%
%TO.N,3V3_SYS*%
X30250000Y-69447800D03*
%TO.P,U2,8*%
X30750001Y-69447800D03*
D13*
%TO.P,U2,9*%
%TO.N,SPK_OUTP*%
X31447800Y-68750001D03*
%TO.P,U2,10*%
%TO.N,SPK_OUTN*%
X31447800Y-68250000D03*
%TO.P,U2,11*%
%TO.N,GND*%
X31447800Y-67750000D03*
%TO.P,U2,12*%
%TO.N,N/C*%
X31447800Y-67249999D03*
D14*
%TO.P,U2,13*%
X30750001Y-66552200D03*
%TO.P,U2,14*%
%TO.N,SPK_LRCLK*%
X30250000Y-66552200D03*
%TO.P,U2,15*%
%TO.N,GND*%
X29750000Y-66552200D03*
%TO.P,U2,16*%
%TO.N,SPK_BCLK*%
X29249999Y-66552200D03*
D15*
%TO.P,U2,17*%
%TO.N,GND*%
X30000000Y-68000000D03*
%TD*%
D10*
%TO.P,C7,1*%
%TO.N,GND*%
X9225000Y-58000000D03*
%TO.P,C7,2*%
%TO.N,NET_U7_REG*%
X10775000Y-58000000D03*
%TD*%
%TO.P,C18,1*%
%TO.N,GND*%
X10225000Y-34000000D03*
%TO.P,C18,2*%
%TO.N,EN*%
X11775000Y-34000000D03*
%TD*%
D16*
%TO.P,U5,1*%
%TO.N,GND*%
X27137500Y-46425000D03*
%TO.P,U5,2*%
X27137500Y-47075000D03*
%TO.P,U5,3*%
%TO.N,TCA_RESET*%
X27137500Y-47725000D03*
%TO.P,U5,4*%
%TO.N,MUX_CH0_SDA*%
X27137500Y-48375000D03*
%TO.P,U5,5*%
%TO.N,MUX_CH0_SCL*%
X27137500Y-49025000D03*
%TO.P,U5,6*%
%TO.N,MUX_CH1_SDA*%
X27137500Y-49675000D03*
%TO.P,U5,7*%
%TO.N,MUX_CH1_SCL*%
X27137500Y-50325000D03*
%TO.P,U5,8*%
%TO.N,MUX_CH2_SDA*%
X27137500Y-50975000D03*
%TO.P,U5,9*%
%TO.N,MUX_CH2_SCL*%
X27137500Y-51625000D03*
%TO.P,U5,10*%
%TO.N,MUX_CH3_SDA*%
X27137500Y-52275000D03*
%TO.P,U5,11*%
%TO.N,MUX_CH3_SCL*%
X27137500Y-52925000D03*
%TO.P,U5,12*%
%TO.N,GND*%
X27137500Y-53575000D03*
%TO.P,U5,13*%
%TO.N,N/C*%
X32862500Y-53575000D03*
%TO.P,U5,14*%
X32862500Y-52925000D03*
%TO.P,U5,15*%
X32862500Y-52275000D03*
%TO.P,U5,16*%
X32862500Y-51625000D03*
%TO.P,U5,17*%
X32862500Y-50975000D03*
%TO.P,U5,18*%
X32862500Y-50325000D03*
%TO.P,U5,19*%
X32862500Y-49675000D03*
%TO.P,U5,20*%
X32862500Y-49025000D03*
%TO.P,U5,21*%
%TO.N,GND*%
X32862500Y-48375000D03*
%TO.P,U5,22*%
%TO.N,HAPTIC_SCL*%
X32862500Y-47725000D03*
%TO.P,U5,23*%
%TO.N,HAPTIC_SDA*%
X32862500Y-47075000D03*
%TO.P,U5,24*%
%TO.N,3V3_SYS*%
X32862500Y-46425000D03*
%TD*%
D10*
%TO.P,C2,1*%
%TO.N,3V3_SYS*%
X50225000Y-52000000D03*
%TO.P,C2,2*%
%TO.N,GND*%
X51775000Y-52000000D03*
%TD*%
%TO.P,C1,1*%
%TO.N,VSYS*%
X50225000Y-48000000D03*
%TO.P,C1,2*%
%TO.N,GND*%
X51775000Y-48000000D03*
%TD*%
%TO.P,C6,1*%
%TO.N,GND*%
X50225000Y-40000000D03*
%TO.P,C6,2*%
%TO.N,NET_U6_REG*%
X51775000Y-40000000D03*
%TD*%
D17*
%TO.P,J5,1*%
%TO.N,MIC_BOT_WS*%
X41000000Y-78000000D03*
%TO.P,J5,2*%
%TO.N,MIC_BOT_SCK*%
X42000000Y-78000000D03*
%TO.P,J5,3*%
%TO.N,MIC_BOT_SD*%
X43000000Y-78000000D03*
%TO.P,J5,4*%
%TO.N,3V3_SYS*%
X44000000Y-78000000D03*
%TO.P,J5,5*%
%TO.N,GND*%
X45000000Y-78000000D03*
%TO.P,J5,6*%
%TO.N,MOTOR_BR_OUTP*%
X46000000Y-78000000D03*
%TO.P,J5,7*%
%TO.N,MOTOR_BR_OUTN*%
X47000000Y-78000000D03*
D18*
%TO.P,J5,MP*%
%TO.N,N/C*%
X39700000Y-81875000D03*
X48300000Y-81875000D03*
%TD*%
D11*
%TO.P,U3,1*%
%TO.N,NET_U3_REG*%
X12800000Y-43000000D03*
%TO.P,U3,2*%
%TO.N,MUX_CH0_SCL*%
X12800000Y-43500000D03*
%TO.P,U3,3*%
%TO.N,MUX_CH0_SDA*%
X12800000Y-44000000D03*
%TO.P,U3,4*%
%TO.N,GND*%
X12800000Y-44500000D03*
%TO.P,U3,5*%
%TO.N,3V3_SYS*%
X12800000Y-45000000D03*
%TO.P,U3,6*%
X17200000Y-45000000D03*
%TO.P,U3,7*%
%TO.N,MOTOR_TL_OUTP*%
X17200000Y-44500000D03*
%TO.P,U3,8*%
%TO.N,GND*%
X17200000Y-44000000D03*
%TO.P,U3,9*%
%TO.N,MOTOR_TL_OUTN*%
X17200000Y-43500000D03*
%TO.P,U3,10*%
%TO.N,3V3_SYS*%
X17200000Y-43000000D03*
%TD*%
D19*
%TO.P,J1,1*%
%TO.N,VBAT*%
X59000000Y-23500000D03*
%TO.P,J1,2*%
%TO.N,GND*%
X59000000Y-31100000D03*
%TO.P,J1,3*%
%TO.N,VSYS*%
X59000000Y-20000000D03*
%TO.P,J1,4*%
%TO.N,GND*%
X59000000Y-34500000D03*
%TD*%
D17*
%TO.P,J3,1*%
%TO.N,MIC_TOP_WS*%
X40000000Y-6000000D03*
%TO.P,J3,2*%
%TO.N,MIC_TOP_SCK*%
X41000000Y-6000000D03*
%TO.P,J3,3*%
%TO.N,MIC_TOP_SD*%
X42000000Y-6000000D03*
%TO.P,J3,4*%
%TO.N,3V3_SYS*%
X43000000Y-6000000D03*
%TO.P,J3,5*%
%TO.N,GND*%
X44000000Y-6000000D03*
%TO.P,J3,6*%
%TO.N,MOTOR_TR_OUTP*%
X45000000Y-6000000D03*
%TO.P,J3,7*%
%TO.N,MOTOR_TR_OUTN*%
X46000000Y-6000000D03*
%TO.P,J3,8*%
%TO.N,SPK_OUTP*%
X47000000Y-6000000D03*
%TO.P,J3,9*%
%TO.N,SPK_OUTN*%
X48000000Y-6000000D03*
D18*
%TO.P,J3,MP*%
%TO.N,N/C*%
X38700000Y-9875000D03*
X49300000Y-9875000D03*
%TD*%
D10*
%TO.P,C17,1*%
%TO.N,3V3_SYS*%
X10225000Y-24000000D03*
%TO.P,C17,2*%
%TO.N,GND*%
X11775000Y-24000000D03*
%TD*%
D20*
%TO.P,LD1,1*%
%TO.N,GND*%
X57000000Y-52000000D03*
D21*
%TO.P,LD1,2*%
%TO.N,3V3_SYS*%
X57000000Y-54540000D03*
%TO.P,LD1,3*%
%TO.N,VSYS*%
X57000000Y-57080000D03*
%TD*%
D11*
%TO.P,U8,1*%
%TO.N,NET_U8_REG*%
X42800000Y-57000000D03*
%TO.P,U8,2*%
%TO.N,MUX_CH3_SCL*%
X42800000Y-57500000D03*
%TO.P,U8,3*%
%TO.N,MUX_CH3_SDA*%
X42800000Y-58000000D03*
%TO.P,U8,4*%
%TO.N,GND*%
X42800000Y-58500000D03*
%TO.P,U8,5*%
%TO.N,3V3_SYS*%
X42800000Y-59000000D03*
%TO.P,U8,6*%
X47200000Y-59000000D03*
%TO.P,U8,7*%
%TO.N,MOTOR_BR_OUTP*%
X47200000Y-58500000D03*
%TO.P,U8,8*%
%TO.N,GND*%
X47200000Y-58000000D03*
%TO.P,U8,9*%
%TO.N,MOTOR_BR_OUTN*%
X47200000Y-57500000D03*
%TO.P,U8,10*%
%TO.N,3V3_SYS*%
X47200000Y-57000000D03*
%TD*%
D10*
%TO.P,C13,1*%
%TO.N,3V3_SYS*%
X35225000Y-50000000D03*
%TO.P,C13,2*%
%TO.N,GND*%
X36775000Y-50000000D03*
%TD*%
D12*
%TO.P,R2,1*%
%TO.N,TCA_RESET*%
X19175000Y-50000000D03*
%TO.P,R2,2*%
%TO.N,3V3_SYS*%
X20825000Y-50000000D03*
%TD*%
D10*
%TO.P,C4,1*%
%TO.N,3V3_SYS*%
X50225000Y-60000000D03*
%TO.P,C4,2*%
%TO.N,GND*%
X51775000Y-60000000D03*
%TD*%
%TO.P,C14,1*%
%TO.N,3V3_SYS*%
X35225000Y-68000000D03*
%TO.P,C14,2*%
%TO.N,GND*%
X36775000Y-68000000D03*
%TD*%
%TO.P,C16,1*%
%TO.N,VSYS*%
X50225000Y-44000000D03*
%TO.P,C16,2*%
%TO.N,GND*%
X51775000Y-44000000D03*
%TD*%
%TO.P,C5,1*%
%TO.N,NET_U3_REG*%
X9225000Y-44000000D03*
%TO.P,C5,2*%
%TO.N,GND*%
X10775000Y-44000000D03*
%TD*%
D22*
%TO.P,BT1,1*%
%TO.N,VBAT*%
X57000000Y-42000000D03*
D23*
%TO.P,BT1,2*%
%TO.N,GND*%
X59000000Y-42000000D03*
%TD*%
D11*
%TO.P,U7,1*%
%TO.N,NET_U7_REG*%
X12800000Y-57000000D03*
%TO.P,U7,2*%
%TO.N,MUX_CH2_SCL*%
X12800000Y-57500000D03*
%TO.P,U7,3*%
%TO.N,MUX_CH2_SDA*%
X12800000Y-58000000D03*
%TO.P,U7,4*%
%TO.N,GND*%
X12800000Y-58500000D03*
%TO.P,U7,5*%
%TO.N,3V3_SYS*%
X12800000Y-59000000D03*
%TO.P,U7,6*%
X17200000Y-59000000D03*
%TO.P,U7,7*%
%TO.N,MOTOR_BL_OUTP*%
X17200000Y-58500000D03*
%TO.P,U7,8*%
%TO.N,GND*%
X17200000Y-58000000D03*
%TO.P,U7,9*%
%TO.N,MOTOR_BL_OUTN*%
X17200000Y-57500000D03*
%TO.P,U7,10*%
%TO.N,3V3_SYS*%
X17200000Y-57000000D03*
%TD*%
D24*
%TO.P,U1,1*%
%TO.N,GND*%
X21250000Y-21740000D03*
%TO.P,U1,2*%
%TO.N,3V3_SYS*%
X21250000Y-23010000D03*
%TO.P,U1,3*%
%TO.N,EN*%
X21250000Y-24280000D03*
%TO.P,U1,4*%
%TO.N,MIC_TOP_WS*%
X21250000Y-25550000D03*
%TO.P,U1,5*%
%TO.N,MIC_TOP_SCK*%
X21250000Y-26820000D03*
%TO.P,U1,6*%
%TO.N,N/C*%
X21250000Y-28090000D03*
%TO.P,U1,7*%
X21250000Y-29360000D03*
%TO.P,U1,8*%
X21250000Y-30630000D03*
%TO.P,U1,9*%
%TO.N,MIC_TOP_SD*%
X21250000Y-31900000D03*
%TO.P,U1,10*%
%TO.N,N/C*%
X21250000Y-33170000D03*
%TO.P,U1,11*%
%TO.N,MIC_BOT_SD*%
X21250000Y-34440000D03*
%TO.P,U1,12*%
%TO.N,N/C*%
X21250000Y-35710000D03*
%TO.P,U1,13*%
X21250000Y-36980000D03*
%TO.P,U1,14*%
X21250000Y-38250000D03*
D25*
%TO.P,U1,15*%
X23015000Y-39500000D03*
%TO.P,U1,16*%
X24285000Y-39500000D03*
%TO.P,U1,17*%
%TO.N,HAPTIC_SDA*%
X25555000Y-39500000D03*
%TO.P,U1,18*%
%TO.N,N/C*%
X26825000Y-39500000D03*
%TO.P,U1,19*%
%TO.N,HAPTIC_SCL*%
X28095000Y-39500000D03*
%TO.P,U1,20*%
%TO.N,MIC_BOT_WS*%
X29365000Y-39500000D03*
%TO.P,U1,21*%
%TO.N,N/C*%
X30635000Y-39500000D03*
%TO.P,U1,22*%
X31905000Y-39500000D03*
%TO.P,U1,23*%
%TO.N,MIC_BOT_SCK*%
X33175000Y-39500000D03*
%TO.P,U1,24*%
%TO.N,SPK_DIN*%
X34445000Y-39500000D03*
%TO.P,U1,25*%
%TO.N,SPK_BCLK*%
X35715000Y-39500000D03*
%TO.P,U1,26*%
%TO.N,SPK_LRCLK*%
X36985000Y-39500000D03*
D24*
%TO.P,U1,27*%
%TO.N,N/C*%
X38750000Y-38250000D03*
%TO.P,U1,28*%
X38750000Y-36980000D03*
%TO.P,U1,29*%
X38750000Y-35710000D03*
%TO.P,U1,30*%
X38750000Y-34440000D03*
%TO.P,U1,31*%
X38750000Y-33170000D03*
%TO.P,U1,32*%
X38750000Y-31900000D03*
%TO.P,U1,33*%
X38750000Y-30630000D03*
%TO.P,U1,34*%
X38750000Y-29360000D03*
%TO.P,U1,35*%
X38750000Y-28090000D03*
%TO.P,U1,36*%
X38750000Y-26820000D03*
%TO.P,U1,37*%
X38750000Y-25550000D03*
%TO.P,U1,38*%
X38750000Y-24280000D03*
%TO.P,U1,39*%
X38750000Y-23010000D03*
%TO.P,U1,40*%
%TO.N,GND*%
X38750000Y-21740000D03*
D26*
%TO.P,U1,41*%
X28500000Y-29460000D03*
%TO.P,U1,42*%
%TO.N,N/C*%
X27100000Y-28060000D03*
%TO.P,U1,43*%
X27100000Y-29460000D03*
%TO.P,U1,44*%
X27100000Y-30860000D03*
%TO.P,U1,45*%
X28500000Y-30860000D03*
%TO.P,U1,46*%
%TO.N,GND*%
X29900000Y-30860000D03*
%TO.P,U1,47*%
X29900000Y-29460000D03*
%TO.P,U1,48*%
X29900000Y-28060000D03*
%TO.P,U1,49*%
X28500000Y-28060000D03*
%TD*%
D17*
%TO.P,J2,1*%
%TO.N,MIC_TOP_WS*%
X12000000Y-6000000D03*
%TO.P,J2,2*%
%TO.N,MIC_TOP_SCK*%
X13000000Y-6000000D03*
%TO.P,J2,3*%
%TO.N,MIC_TOP_SD*%
X14000000Y-6000000D03*
%TO.P,J2,4*%
%TO.N,3V3_SYS*%
X15000000Y-6000000D03*
%TO.P,J2,5*%
%TO.N,GND*%
X16000000Y-6000000D03*
%TO.P,J2,6*%
%TO.N,MOTOR_TL_OUTP*%
X17000000Y-6000000D03*
%TO.P,J2,7*%
%TO.N,MOTOR_TL_OUTN*%
X18000000Y-6000000D03*
%TO.P,J2,8*%
%TO.N,SPK_OUTP*%
X19000000Y-6000000D03*
%TO.P,J2,9*%
%TO.N,SPK_OUTN*%
X20000000Y-6000000D03*
D18*
%TO.P,J2,MP*%
%TO.N,N/C*%
X10700000Y-9875000D03*
X21300000Y-9875000D03*
%TD*%
D10*
%TO.P,C8,1*%
%TO.N,GND*%
X49225000Y-62000000D03*
%TO.P,C8,2*%
%TO.N,NET_U8_REG*%
X50775000Y-62000000D03*
%TD*%
D17*
%TO.P,J4,1*%
%TO.N,MIC_BOT_WS*%
X13000000Y-78000000D03*
%TO.P,J4,2*%
%TO.N,MIC_BOT_SCK*%
X14000000Y-78000000D03*
%TO.P,J4,3*%
%TO.N,MIC_BOT_SD*%
X15000000Y-78000000D03*
%TO.P,J4,4*%
%TO.N,3V3_SYS*%
X16000000Y-78000000D03*
%TO.P,J4,5*%
%TO.N,GND*%
X17000000Y-78000000D03*
%TO.P,J4,6*%
%TO.N,MOTOR_BL_OUTP*%
X18000000Y-78000000D03*
%TO.P,J4,7*%
%TO.N,MOTOR_BL_OUTN*%
X19000000Y-78000000D03*
D18*
%TO.P,J4,MP*%
%TO.N,N/C*%
X11700000Y-81875000D03*
X20300000Y-81875000D03*
%TD*%
D10*
%TO.P,C15,1*%
%TO.N,3V3_SYS*%
X10225000Y-20000000D03*
%TO.P,C15,2*%
%TO.N,GND*%
X11775000Y-20000000D03*
%TD*%
D27*
%TO.N,GND*%
X30873100Y-27833100D03*
X40024600Y-21516400D03*
%TO.N,VSYS*%
X50225000Y-46939300D03*
%TO.N,3V3_SYS*%
X18467300Y-57624700D03*
X10157500Y-24989000D03*
X43000000Y-7301200D03*
X11825000Y-29018500D03*
X43439300Y-69415700D03*
X14267500Y-59132500D03*
X19995100Y-23155800D03*
%TO.N,MIC_TOP_WS*%
X40396400Y-7318100D03*
X19980300Y-25410000D03*
X12000000Y-4700900D03*
X38930400Y-5891400D03*
%TO.N,MIC_TOP_SCK*%
X19977500Y-26573500D03*
X41000000Y-4704400D03*
X13000000Y-4700900D03*
%TO.N,MIC_TOP_SD*%
X19666100Y-31671100D03*
X42000000Y-4719900D03*
X14000000Y-4702500D03*
%TO.N,MIC_BOT_SD*%
X43000000Y-76702000D03*
X15000000Y-76714500D03*
X19666100Y-34667300D03*
%TO.N,HAPTIC_SDA*%
X31592600Y-46506700D03*
X37696100Y-43145800D03*
%TO.N,MIC_BOT_WS*%
X13384700Y-72917100D03*
X29365000Y-40761900D03*
X41000000Y-79283600D03*
%TO.N,MIC_BOT_SCK*%
X33175000Y-40778200D03*
X14000000Y-64631800D03*
X42000000Y-79278100D03*
%TO.N,SPK_DIN*%
X34445000Y-40755200D03*
X27627000Y-64844100D03*
%TO.N,SPK_BCLK*%
X35715000Y-40755900D03*
X29250000Y-65609200D03*
%TO.N,SPK_LRCLK*%
X30314900Y-50220800D03*
X36985000Y-43765700D03*
%TO.N,SPK_OUTP*%
X19000000Y-4700100D03*
X47000000Y-4701000D03*
%TO.N,SPK_OUTN*%
X44577800Y-7752000D03*
X48000000Y-4709600D03*
X21128300Y-4740900D03*
%TO.N,MUX_CH0_SCL*%
X25874400Y-49138600D03*
X14610700Y-43394100D03*
%TO.N,MUX_CH0_SDA*%
X25253900Y-48511400D03*
X14043700Y-44010600D03*
%TO.N,MOTOR_TL_OUTP*%
X18625600Y-44450500D03*
X17000000Y-7306800D03*
%TO.N,MOTOR_TL_OUTN*%
X17934000Y-19358200D03*
X18008800Y-42108000D03*
%TO.N,MUX_CH1_SDA*%
X28723200Y-48813800D03*
X40927700Y-44152700D03*
%TO.N,MUX_CH1_SCL*%
X28723200Y-50174000D03*
X40392800Y-43549500D03*
%TO.N,MUX_CH2_SDA*%
X31507800Y-59548100D03*
X23895100Y-54060400D03*
X31507800Y-53901400D03*
X28734700Y-51128300D03*
X28727000Y-59345900D03*
X15247400Y-55734300D03*
%TO.N,MUX_CH2_SCL*%
X12513900Y-56266400D03*
X25897800Y-51625000D03*
%TO.N,MUX_CH3_SDA*%
X41555000Y-57606900D03*
X28721600Y-52009300D03*
%TO.N,MUX_CH3_SCL*%
X44048700Y-57449300D03*
X29124900Y-52811000D03*
%TO.N,MOTOR_TR_OUTP*%
X45179500Y-36990100D03*
X48430300Y-44514400D03*
%TO.N,MOTOR_TR_OUTN*%
X46000000Y-36171900D03*
X48801100Y-43226100D03*
%TO.N,NET_U7_REG*%
X12764300Y-55362500D03*
X13469600Y-56067800D03*
%TO.N,NET_U8_REG*%
X50003600Y-62734700D03*
X43476200Y-56322200D03*
%TO.N,MOTOR_BR_OUTN*%
X48799500Y-65367500D03*
X45411000Y-57725500D03*
%TD*%
D28*
%TO.N,VBAT*%
X57000000Y-42000000D02*
X57000000Y-25500000D01*
X57000000Y-25500000D02*
X59000000Y-23500000D01*
%TO.N,GND*%
X10976200Y-44500000D02*
X12800000Y-44500000D01*
X47292200Y-79124500D02*
X49402400Y-77014300D01*
X49533100Y-43098100D02*
X48949700Y-42514700D01*
X17000000Y-78510200D02*
X17000000Y-78000000D01*
D29*
X16299300Y-58049500D02*
X17150500Y-58049500D01*
D28*
X48794100Y-43899800D02*
X48181800Y-43899800D01*
X45000000Y-78000000D02*
X45000000Y-59000000D01*
X27137500Y-47075000D02*
X27868000Y-47075000D01*
X8464000Y-44505100D02*
X8464000Y-36329000D01*
X49145300Y-43850700D02*
X49533100Y-43462900D01*
X50546000Y-42771000D02*
X50225000Y-42771000D01*
X27137500Y-53575000D02*
X29211800Y-53575000D01*
X8864100Y-35928900D02*
X8864100Y-35360900D01*
D29*
X50220000Y-61223900D02*
X50976100Y-61223900D01*
D28*
X9437500Y-33212500D02*
X9437500Y-26795300D01*
X30390000Y-48375000D02*
X29779000Y-48986000D01*
X59000000Y-34500000D02*
X59000000Y-31100000D01*
D29*
X42750500Y-44549500D02*
X42800000Y-44500000D01*
D28*
X10055400Y-58830400D02*
X11375200Y-58830400D01*
X46271900Y-42514700D02*
X44286600Y-44500000D01*
X11775000Y-20000000D02*
X11775000Y-24000000D01*
X29638000Y-52473200D02*
X29638000Y-49127000D01*
X43976100Y-6023900D02*
X43976100Y-17564900D01*
X48949700Y-42514700D02*
X46271900Y-42514700D01*
X29750000Y-65987000D02*
X29750000Y-66552200D01*
X49533100Y-43098100D02*
X49897900Y-43098100D01*
X29246200Y-27422600D02*
X23563600Y-21740000D01*
X21250000Y-21740000D02*
X20199000Y-21740000D01*
X29211800Y-53575000D02*
X29872000Y-54235200D01*
X51775000Y-48000000D02*
X51775000Y-52000000D01*
D29*
X40006100Y-58500000D02*
X42800000Y-58500000D01*
D28*
X29246200Y-28060000D02*
X29246200Y-27422600D01*
X16000000Y-20000000D02*
X18459000Y-20000000D01*
D29*
X41526700Y-44549500D02*
X42750500Y-44549500D01*
D28*
X9225000Y-58000000D02*
X10055400Y-58830400D01*
X8864100Y-35360900D02*
X10225000Y-34000000D01*
D29*
X29308100Y-68177200D02*
X29235300Y-68250000D01*
D28*
X45586600Y-79124500D02*
X47292200Y-79124500D01*
X45000000Y-78000000D02*
X45000000Y-78537900D01*
D29*
X17150500Y-58049500D02*
X17200000Y-58000000D01*
D28*
X10976200Y-44201200D02*
X10976200Y-44500000D01*
X28500000Y-28060000D02*
X29246200Y-28060000D01*
X11775000Y-20000000D02*
X16000000Y-20000000D01*
X15692200Y-56592700D02*
X18859300Y-53425600D01*
X49443900Y-62000000D02*
X50220000Y-61223900D01*
X28500000Y-29460000D02*
X28500000Y-28060000D01*
X29900000Y-29460000D02*
X29900000Y-28060000D01*
X50225000Y-40000000D02*
X50225000Y-42771000D01*
X27844100Y-70582700D02*
X19285500Y-79141300D01*
X17631100Y-79141300D02*
X17000000Y-78510200D01*
X18859300Y-53425600D02*
X24495300Y-53425600D01*
X11775000Y-24457800D02*
X11775000Y-24000000D01*
X17655400Y-41430400D02*
X10225000Y-34000000D01*
X18638100Y-41886400D02*
X18182100Y-41430400D01*
X58098300Y-49750000D02*
X58098300Y-42000000D01*
D29*
X17249500Y-43950500D02*
X17200000Y-44000000D01*
D28*
X49533100Y-43462900D02*
X49533100Y-43098100D01*
D29*
X30000000Y-67822800D02*
X30691900Y-67822800D01*
D28*
X49402400Y-64731200D02*
X49225000Y-64553800D01*
D29*
X31447800Y-67750000D02*
X30764700Y-67750000D01*
D28*
X40024600Y-21516400D02*
X39801000Y-21740000D01*
X57000000Y-52000000D02*
X57000000Y-50848300D01*
X49225000Y-62000000D02*
X49443900Y-62000000D01*
X49897900Y-43098100D02*
X50225000Y-42771000D01*
X29872000Y-65865000D02*
X29750000Y-65987000D01*
X16000000Y-20000000D02*
X16000000Y-6000000D01*
X44286600Y-44500000D02*
X42800000Y-44500000D01*
X48841000Y-43946700D02*
X48794100Y-43899800D01*
X9717600Y-45758600D02*
X9225000Y-46251200D01*
D29*
X28552200Y-68250000D02*
X29235300Y-68250000D01*
D28*
X59000000Y-42000000D02*
X58098300Y-42000000D01*
X59000000Y-42000000D02*
X59000000Y-34500000D01*
X30873100Y-27833100D02*
X30646200Y-28060000D01*
X10976200Y-44500000D02*
X9717600Y-45758600D01*
X40006100Y-58500000D02*
X40006100Y-64768900D01*
X36775000Y-49301200D02*
X41526700Y-44549500D01*
X51775000Y-60425000D02*
X51775000Y-60000000D01*
X51775000Y-44000000D02*
X51775000Y-48000000D01*
X49225000Y-64553800D02*
X49225000Y-62000000D01*
X55775000Y-52000000D02*
X51775000Y-48000000D01*
X11375200Y-58830400D02*
X11656100Y-58549500D01*
D29*
X48937000Y-43850700D02*
X48841000Y-43946700D01*
D28*
X19285500Y-79141300D02*
X17631100Y-79141300D01*
X9437500Y-26795300D02*
X11775000Y-24457800D01*
D29*
X12750500Y-58549500D02*
X12800000Y-58500000D01*
D28*
X32862500Y-48375000D02*
X30390000Y-48375000D01*
X18182100Y-41430400D02*
X17655400Y-41430400D01*
X45000000Y-59000000D02*
X44500000Y-58500000D01*
X10225000Y-34000000D02*
X9437500Y-33212500D01*
X9717600Y-45758600D02*
X8464000Y-44505100D01*
X46000000Y-58000000D02*
X47200000Y-58000000D01*
X15241700Y-58500000D02*
X15692200Y-58049500D01*
X9225000Y-46251200D02*
X9225000Y-58000000D01*
X48181800Y-43899800D02*
X48131100Y-43950500D01*
X45000000Y-59000000D02*
X46000000Y-58000000D01*
X18236400Y-43950500D02*
X18638100Y-43548800D01*
X57000000Y-52000000D02*
X55775000Y-52000000D01*
X30000000Y-68000000D02*
X30000000Y-68177200D01*
X29726600Y-53060200D02*
X29726600Y-52561800D01*
X51775000Y-44000000D02*
X50546000Y-42771000D01*
D29*
X47249500Y-43950500D02*
X47200000Y-44000000D01*
D28*
X23563600Y-21740000D02*
X21250000Y-21740000D01*
X45000000Y-78537900D02*
X45586600Y-79124500D01*
X57000000Y-50848300D02*
X58098300Y-49750000D01*
X30000000Y-68000000D02*
X30000000Y-67822800D01*
X40006100Y-64768900D02*
X36775000Y-68000000D01*
X27868000Y-47075000D02*
X29779000Y-48986000D01*
D29*
X48131100Y-43950500D02*
X47249500Y-43950500D01*
D28*
X51775000Y-60000000D02*
X51775000Y-56000000D01*
X44500000Y-58500000D02*
X42800000Y-58500000D01*
X24644700Y-53575000D02*
X27137500Y-53575000D01*
D29*
X50976100Y-61223900D02*
X51775000Y-60425000D01*
D28*
X28552200Y-68250000D02*
X27844100Y-68250000D01*
X36775000Y-55268900D02*
X36775000Y-50000000D01*
X16299300Y-58049500D02*
X15692200Y-58049500D01*
X49402400Y-77014300D02*
X49402400Y-64731200D01*
X29211800Y-53575000D02*
X29726600Y-53060200D01*
X29638000Y-49127000D02*
X29779000Y-48986000D01*
D29*
X11656100Y-58549500D02*
X12750500Y-58549500D01*
D28*
X43976100Y-17564900D02*
X40024600Y-21516400D01*
X10775000Y-44000000D02*
X10976200Y-44201200D01*
X29900000Y-29460000D02*
X28500000Y-29460000D01*
X30000000Y-67822800D02*
X29750000Y-67572800D01*
D29*
X30691900Y-67822800D02*
X30764700Y-67750000D01*
X49145300Y-43850700D02*
X48937000Y-43850700D01*
D28*
X29750000Y-67572800D02*
X29750000Y-66552200D01*
X12800000Y-58500000D02*
X15241700Y-58500000D01*
D29*
X18236400Y-43950500D02*
X17249500Y-43950500D01*
D28*
X36775000Y-50000000D02*
X36775000Y-49301200D01*
X38750000Y-21740000D02*
X39801000Y-21740000D01*
X24495300Y-53425600D02*
X24644700Y-53575000D01*
X27844100Y-68250000D02*
X27844100Y-70582700D01*
X40006100Y-58500000D02*
X36775000Y-55268900D01*
X18638100Y-43548800D02*
X18638100Y-41886400D01*
X15692200Y-58049500D02*
X15692200Y-56592700D01*
X18459000Y-20000000D02*
X20199000Y-21740000D01*
X27137500Y-47075000D02*
X27137500Y-46425000D01*
D29*
X30000000Y-68177200D02*
X29308100Y-68177200D01*
D28*
X44000000Y-6000000D02*
X43976100Y-6023900D01*
X29900000Y-30860000D02*
X29900000Y-29460000D01*
X29900000Y-28060000D02*
X30646200Y-28060000D01*
X8464000Y-36329000D02*
X8864100Y-35928900D01*
X29872000Y-54235200D02*
X29872000Y-65865000D01*
X29726600Y-52561800D02*
X29638000Y-52473200D01*
%TO.N,VSYS*%
X60201500Y-21201500D02*
X60201500Y-52995300D01*
X57268500Y-55928300D02*
X57000000Y-55928300D01*
X59000000Y-20000000D02*
X60201500Y-21201500D01*
X55848300Y-57080000D02*
X53942500Y-55174200D01*
X50225000Y-44000000D02*
X50225000Y-46939300D01*
X57000000Y-57080000D02*
X57000000Y-55928300D01*
X60201500Y-52995300D02*
X57268500Y-55928300D01*
X53942500Y-55174200D02*
X51050800Y-55174200D01*
X50225000Y-46939300D02*
X50225000Y-48000000D01*
X51050800Y-55174200D02*
X50225000Y-56000000D01*
X57000000Y-57080000D02*
X55848300Y-57080000D01*
%TO.N,3V3_SYS*%
X20825000Y-50000000D02*
X20035900Y-50789100D01*
X16173000Y-43199500D02*
X16372500Y-43000000D01*
X8052600Y-58092500D02*
X9214100Y-59254000D01*
X46118800Y-45000000D02*
X42800000Y-45000000D01*
X10225000Y-24921500D02*
X10225000Y-24000000D01*
X10157500Y-24989000D02*
X8052600Y-27093900D01*
X30750000Y-69177200D02*
X30750000Y-69447800D01*
D29*
X38247400Y-68776400D02*
X36224100Y-68776400D01*
D28*
X12800000Y-59000000D02*
X14267500Y-59000000D01*
X42800000Y-68776400D02*
X42800000Y-59000000D01*
X15921800Y-45000000D02*
X12800000Y-45000000D01*
X11825000Y-29018500D02*
X11825000Y-30000000D01*
X19471600Y-79590600D02*
X28552200Y-70510000D01*
X18467300Y-57508500D02*
X17958800Y-57000000D01*
X28552200Y-70510000D02*
X28552200Y-70155900D01*
X47200000Y-43000000D02*
X46377000Y-43000000D01*
X36001400Y-68776400D02*
X35225000Y-68000000D01*
X30250000Y-70155900D02*
X28552200Y-70155900D01*
X20035900Y-50789100D02*
X18721200Y-50789100D01*
X18892200Y-45067400D02*
X17267400Y-45067400D01*
X47200000Y-45000000D02*
X47200000Y-50350300D01*
X17108800Y-79590600D02*
X19471600Y-79590600D01*
X14267500Y-59000000D02*
X16000000Y-59000000D01*
X35225000Y-50000000D02*
X35225000Y-68000000D01*
X43000000Y-7301200D02*
X43000000Y-6000000D01*
X14267500Y-59000000D02*
X14267500Y-59132500D01*
X47200000Y-57000100D02*
X47200000Y-57000000D01*
X15000000Y-6000000D02*
X15000000Y-15225000D01*
X17267400Y-45067400D02*
X17200000Y-45000000D01*
X16424200Y-45000000D02*
X16173000Y-44748800D01*
X50225000Y-52000000D02*
X48849700Y-52000000D01*
X17958800Y-57000000D02*
X17200000Y-57000000D01*
X12546000Y-59254000D02*
X12800000Y-59000000D01*
X30250000Y-69447800D02*
X30250000Y-70155900D01*
X17687700Y-23155800D02*
X19995100Y-23155800D01*
X48249300Y-59000000D02*
X48249300Y-57255900D01*
X46118800Y-43258200D02*
X46118800Y-45000000D01*
X8052600Y-27093900D02*
X8052600Y-58092500D01*
X34521600Y-68000000D02*
X33344400Y-69177200D01*
X42800000Y-68776400D02*
X38247400Y-68776400D01*
X16173000Y-44748800D02*
X16173000Y-43199500D01*
X30750000Y-70155900D02*
X30250000Y-70155900D01*
X18467300Y-57624700D02*
X18467300Y-57508500D01*
X22301000Y-23010000D02*
X22301000Y-41658600D01*
X17200000Y-45000000D02*
X16424200Y-45000000D01*
X16000000Y-78000000D02*
X16000000Y-59000000D01*
X16000000Y-78481800D02*
X17108800Y-79590600D01*
X16000000Y-59000000D02*
X17200000Y-59000000D01*
X47200000Y-50350300D02*
X48849700Y-52000000D01*
X16372500Y-43000000D02*
X17200000Y-43000000D01*
X10225000Y-20000000D02*
X10225000Y-24000000D01*
X47200000Y-53649700D02*
X47200000Y-57000000D01*
X28552200Y-70155900D02*
X28552200Y-68750000D01*
X47993500Y-57000100D02*
X47200000Y-57000100D01*
X21250000Y-23010000D02*
X22301000Y-23010000D01*
X18721200Y-50789100D02*
X17200000Y-49267900D01*
X17200000Y-49267900D02*
X17200000Y-45000000D01*
D29*
X21250000Y-23010000D02*
X20224000Y-23010000D01*
D28*
X36224100Y-68776400D02*
X36001400Y-68776400D01*
X10157500Y-24989000D02*
X10225000Y-24921500D01*
X49225000Y-59000000D02*
X48249300Y-59000000D01*
X50225000Y-60000000D02*
X49225000Y-59000000D01*
X11825000Y-29018500D02*
X17687700Y-23155800D01*
X30750000Y-69447800D02*
X30750000Y-70155900D01*
X43439300Y-69415700D02*
X42800000Y-68776400D01*
X32862500Y-46425000D02*
X28096100Y-41658600D01*
D29*
X30750000Y-69177200D02*
X33344400Y-69177200D01*
D28*
X22301000Y-41658600D02*
X18892200Y-45067400D01*
X16000000Y-78000000D02*
X16000000Y-78481800D01*
X44000000Y-69976400D02*
X43439300Y-69415700D01*
X48249300Y-57255900D02*
X47993500Y-57000100D01*
X46377000Y-43000000D02*
X46118800Y-43258200D01*
X47200000Y-45000000D02*
X46118800Y-45000000D01*
X48249300Y-59000000D02*
X47200000Y-59000000D01*
D29*
X19995100Y-23155800D02*
X20078200Y-23155800D01*
D28*
X9214100Y-59254000D02*
X12546000Y-59254000D01*
X57000000Y-54540000D02*
X52765000Y-54540000D01*
X28096100Y-41658600D02*
X22301000Y-41658600D01*
X52765000Y-54540000D02*
X50225000Y-52000000D01*
X35225000Y-68000000D02*
X34521600Y-68000000D01*
X44000000Y-78000000D02*
X44000000Y-69976400D01*
D29*
X20078200Y-23155800D02*
X20224000Y-23010000D01*
D28*
X15000000Y-15225000D02*
X10225000Y-20000000D01*
X16173000Y-44748800D02*
X15921800Y-45000000D01*
X48849700Y-52000000D02*
X47200000Y-53649700D01*
%TO.N,EN*%
X10175000Y-30000000D02*
X11775000Y-31600000D01*
D29*
X19996700Y-24507300D02*
X20224000Y-24280000D01*
X21250000Y-24280000D02*
X20224000Y-24280000D01*
D28*
X11775000Y-31600000D02*
X11775000Y-34000000D01*
X12905600Y-31600000D02*
X19996700Y-24508900D01*
X11775000Y-31600000D02*
X12905600Y-31600000D01*
D29*
X19996700Y-24508900D02*
X19996700Y-24507300D01*
D28*
%TO.N,MIC_TOP_WS*%
X12000000Y-6000000D02*
X12000000Y-4700900D01*
X39039000Y-6000000D02*
X38930400Y-5891400D01*
X21250000Y-25550000D02*
X20120300Y-25550000D01*
X20120300Y-25550000D02*
X19980300Y-25410000D01*
X40396400Y-7318100D02*
X40396400Y-6396400D01*
X40000000Y-6000000D02*
X39039000Y-6000000D01*
X40396400Y-6396400D02*
X40000000Y-6000000D01*
%TO.N,MIC_TOP_SCK*%
X13000000Y-6000000D02*
X13000000Y-4700900D01*
D29*
X19977500Y-26573500D02*
X20224000Y-26820000D01*
D28*
X41000000Y-6000000D02*
X41000000Y-4704400D01*
D29*
X21250000Y-26820000D02*
X20224000Y-26820000D01*
%TO.N,MIC_TOP_SD*%
X19995100Y-31671100D02*
X19666100Y-31671100D01*
D28*
X14000000Y-6000000D02*
X14000000Y-4702500D01*
X42000000Y-6000000D02*
X42000000Y-4719900D01*
D29*
X20224000Y-31900000D02*
X19995100Y-31671100D01*
X21250000Y-31900000D02*
X20224000Y-31900000D01*
%TO.N,MIC_BOT_SD*%
X21250000Y-34440000D02*
X20224000Y-34440000D01*
X20224000Y-34440000D02*
X19996700Y-34667300D01*
X19996700Y-34667300D02*
X19666100Y-34667300D01*
D28*
X15000000Y-78000000D02*
X15000000Y-76714500D01*
X43000000Y-78000000D02*
X43000000Y-76702000D01*
%TO.N,HAPTIC_SDA*%
X32862500Y-47075000D02*
X32160900Y-47075000D01*
X37696100Y-38628700D02*
X37696100Y-43145800D01*
X25555000Y-39500000D02*
X25555000Y-38449000D01*
X37516400Y-38449000D02*
X37696100Y-38628700D01*
X25555000Y-38449000D02*
X37516400Y-38449000D01*
X32160900Y-47075000D02*
X31592600Y-46506700D01*
%TO.N,HAPTIC_SCL*%
X28095000Y-39500000D02*
X28095000Y-40551000D01*
X33590200Y-47725000D02*
X32862500Y-47725000D01*
X33931000Y-47384200D02*
X33590200Y-47725000D01*
X28095000Y-40551000D02*
X33390700Y-45846700D01*
X33390700Y-45846700D02*
X33643700Y-45846700D01*
X33643700Y-45846700D02*
X33931000Y-46134000D01*
X33931000Y-46134000D02*
X33931000Y-47384200D01*
%TO.N,MIC_BOT_WS*%
X13000000Y-78000000D02*
X13000000Y-73301800D01*
X41000000Y-78000000D02*
X41000000Y-79283600D01*
X13000000Y-73301800D02*
X13384700Y-72917100D01*
X29365000Y-40761900D02*
X29365000Y-39500000D01*
%TO.N,MIC_BOT_SCK*%
X42000000Y-79278100D02*
X42000000Y-78000000D01*
X14000000Y-78000000D02*
X14000000Y-64631800D01*
X33175000Y-40778200D02*
X33175000Y-39500000D01*
D29*
%TO.N,SPK_DIN*%
X27869100Y-67250000D02*
X27627000Y-67007900D01*
D28*
X34445000Y-40755200D02*
X34445000Y-39500000D01*
D29*
X28552200Y-67250000D02*
X27869100Y-67250000D01*
X27627000Y-67007900D02*
X27627000Y-64844100D01*
D28*
%TO.N,SPK_BCLK*%
X35715000Y-40551000D02*
X35715000Y-40755900D01*
X35715000Y-39500000D02*
X35715000Y-40551000D01*
X29250000Y-66552200D02*
X29250000Y-65609200D01*
%TO.N,SPK_LRCLK*%
X30250000Y-66552200D02*
X30314900Y-66487300D01*
X36985000Y-39500000D02*
X36985000Y-43765700D01*
X30314900Y-66487300D02*
X30314900Y-50220800D01*
%TO.N,SPK_OUTP*%
X34317900Y-48702800D02*
X46222300Y-36798400D01*
X34317900Y-66588000D02*
X34317900Y-48702800D01*
X47000000Y-36099100D02*
X47000000Y-6000000D01*
X46222300Y-36798400D02*
X46300700Y-36798400D01*
X19000000Y-6000000D02*
X19000000Y-4700100D01*
X47000000Y-6000000D02*
X47000000Y-4701000D01*
X46300700Y-36798400D02*
X47000000Y-36099100D01*
X31447800Y-68750000D02*
X32155900Y-68750000D01*
X32155900Y-68750000D02*
X34317900Y-66588000D01*
%TO.N,SPK_OUTN*%
X21128300Y-4871700D02*
X21128300Y-4740900D01*
X33916200Y-66241700D02*
X31907900Y-68250000D01*
X31907900Y-68250000D02*
X31447800Y-68250000D01*
X33916200Y-48511400D02*
X33916200Y-66241700D01*
X44577800Y-7752000D02*
X44577800Y-37849800D01*
X20000000Y-6000000D02*
X21128300Y-4871700D01*
X48000000Y-4709600D02*
X48000000Y-6000000D01*
X44577800Y-37849800D02*
X33916200Y-48511400D01*
%TO.N,NET_U3_REG*%
X9225000Y-44000000D02*
X9999500Y-43225500D01*
D29*
X12750500Y-43049500D02*
X12800000Y-43000000D01*
D28*
X9999500Y-43225500D02*
X9999500Y-43049500D01*
D29*
X9999500Y-43049500D02*
X12750500Y-43049500D01*
D28*
%TO.N,MUX_CH0_SCL*%
X13696600Y-43500000D02*
X12800000Y-43500000D01*
X14610700Y-43394100D02*
X13802500Y-43394100D01*
D29*
X27023900Y-49138600D02*
X25874400Y-49138600D01*
D28*
X13802500Y-43394100D02*
X13696600Y-43500000D01*
D29*
X27137500Y-49025000D02*
X27023900Y-49138600D01*
D28*
%TO.N,MUX_CH0_SDA*%
X12800000Y-44000000D02*
X14033100Y-44000000D01*
X25253900Y-48511400D02*
X27001100Y-48511400D01*
X14033100Y-44000000D02*
X14043700Y-44010600D01*
X27001100Y-48511400D02*
X27137500Y-48375000D01*
%TO.N,MOTOR_TL_OUTP*%
X17000000Y-7306800D02*
X17000000Y-6000000D01*
D29*
X17249500Y-44450500D02*
X17200000Y-44500000D01*
X18625600Y-44450500D02*
X17249500Y-44450500D01*
D28*
%TO.N,MOTOR_TL_OUTN*%
X18000000Y-6000000D02*
X18000000Y-19292200D01*
X18008800Y-42108000D02*
X18236400Y-42335600D01*
X18000000Y-19292200D02*
X17934000Y-19358200D01*
X18236400Y-42335600D02*
X18236400Y-43221700D01*
X18236400Y-43221700D02*
X17958100Y-43500000D01*
X17958100Y-43500000D02*
X17200000Y-43500000D01*
D29*
%TO.N,MUX_CH1_SDA*%
X42750500Y-44049500D02*
X42800000Y-44000000D01*
D28*
X27862000Y-49675000D02*
X28723200Y-48813800D01*
D29*
X40927700Y-44049500D02*
X42750500Y-44049500D01*
D28*
X40927700Y-44049500D02*
X40927700Y-44152700D01*
X27137500Y-49675000D02*
X27862000Y-49675000D01*
D29*
%TO.N,MUX_CH1_SCL*%
X42800000Y-43500000D02*
X42750600Y-43549400D01*
X42750600Y-43549400D02*
X40392800Y-43549400D01*
X40392800Y-43549400D02*
X40392800Y-43549500D01*
X27288500Y-50174000D02*
X28723200Y-50174000D01*
X27137500Y-50325000D02*
X27288500Y-50174000D01*
D28*
%TO.N,MUX_CH2_SDA*%
X27137500Y-50975000D02*
X28581400Y-50975000D01*
X31507800Y-59548100D02*
X31507800Y-53901400D01*
X28581400Y-50975000D02*
X28734700Y-51128300D01*
X15247400Y-55734300D02*
X15247400Y-56313300D01*
X28727000Y-59345900D02*
X23895100Y-54514000D01*
X23895100Y-54514000D02*
X23895100Y-54060400D01*
X13560700Y-58000000D02*
X12800000Y-58000000D01*
X15247400Y-56313300D02*
X13560700Y-58000000D01*
%TO.N,MUX_CH2_SCL*%
X27137500Y-51625000D02*
X25897800Y-51625000D01*
X12800000Y-57500000D02*
X12001500Y-57500000D01*
X12225100Y-56266400D02*
X12513900Y-56266400D01*
X11764500Y-57263000D02*
X11764500Y-56727000D01*
X11764500Y-56727000D02*
X12225100Y-56266400D01*
X12001500Y-57500000D02*
X11764500Y-57263000D01*
D29*
%TO.N,MUX_CH3_SDA*%
X27137500Y-52275000D02*
X28455900Y-52275000D01*
X42750500Y-57950500D02*
X42800000Y-58000000D01*
X41898600Y-57950500D02*
X42750500Y-57950500D01*
D28*
X41555000Y-57606900D02*
X41898600Y-57950500D01*
D29*
X28455900Y-52275000D02*
X28721600Y-52009300D01*
%TO.N,MUX_CH3_SCL*%
X44048700Y-57449400D02*
X44048700Y-57449300D01*
X42800000Y-57500000D02*
X42850600Y-57449400D01*
X29010900Y-52925000D02*
X29124900Y-52811000D01*
X27137500Y-52925000D02*
X29010900Y-52925000D01*
X42850600Y-57449400D02*
X44048700Y-57449400D01*
D28*
%TO.N,NET_U6_REG*%
X46590600Y-39209400D02*
X50984400Y-39209400D01*
X42800000Y-43000000D02*
X46590600Y-39209400D01*
X50984400Y-39209400D02*
X51775000Y-40000000D01*
%TO.N,MOTOR_TR_OUTP*%
X45179500Y-6179500D02*
X45000000Y-6000000D01*
D29*
X48415900Y-44500000D02*
X48430300Y-44514400D01*
X47200000Y-44500000D02*
X48415900Y-44500000D01*
D28*
X45179500Y-36990100D02*
X45179500Y-6179500D01*
%TO.N,MOTOR_TR_OUTN*%
X46000000Y-6000000D02*
X46000000Y-36171900D01*
D29*
X48801100Y-43450500D02*
X47249500Y-43450500D01*
X47249500Y-43450500D02*
X47200000Y-43500000D01*
D28*
X48801100Y-43226100D02*
X48801100Y-43450500D01*
%TO.N,NET_U7_REG*%
X10775000Y-57148500D02*
X12561000Y-55362500D01*
X13469600Y-56330400D02*
X13469600Y-56067800D01*
X12561000Y-55362500D02*
X12764300Y-55362500D01*
X12800000Y-57000000D02*
X13469600Y-56330400D01*
X10775000Y-58000000D02*
X10775000Y-57148500D01*
%TO.N,MOTOR_BL_OUTP*%
X17958100Y-58500000D02*
X17200000Y-58500000D01*
X18227000Y-58768900D02*
X17958100Y-58500000D01*
X18000000Y-78000000D02*
X18227000Y-77773000D01*
X18227000Y-77773000D02*
X18227000Y-58768900D01*
%TO.N,MOTOR_BL_OUTN*%
X16148800Y-57277000D02*
X16371800Y-57500000D01*
X18233700Y-56540200D02*
X16324000Y-56540200D01*
X19000000Y-78000000D02*
X19069000Y-77931000D01*
X19069000Y-57375500D02*
X18233700Y-56540200D01*
X19069000Y-77931000D02*
X19069000Y-57375500D01*
X16371800Y-57500000D02*
X17200000Y-57500000D01*
X16324000Y-56540200D02*
X16148800Y-56715400D01*
X16148800Y-56715400D02*
X16148800Y-57277000D01*
%TO.N,NET_U8_REG*%
X50040300Y-62734700D02*
X50003600Y-62734700D01*
X50775000Y-62000000D02*
X50040300Y-62734700D01*
X42800000Y-57000000D02*
X43476200Y-56323800D01*
X43476200Y-56323800D02*
X43476200Y-56322200D01*
%TO.N,MOTOR_BR_OUTP*%
X46000000Y-78000000D02*
X46000000Y-58915000D01*
X46415000Y-58500000D02*
X47200000Y-58500000D01*
X46000000Y-58915000D02*
X46415000Y-58500000D01*
%TO.N,MOTOR_BR_OUTN*%
X48799500Y-76200500D02*
X48799500Y-65367500D01*
X45636500Y-57500000D02*
X45411000Y-57725500D01*
X47200000Y-57500000D02*
X45636500Y-57500000D01*
X47000000Y-78000000D02*
X48799500Y-76200500D01*
D29*
%TO.N,TCA_RESET*%
X25038000Y-47874400D02*
X26988100Y-47874400D01*
D28*
X25038000Y-47874400D02*
X21300600Y-47874400D01*
D29*
X26988100Y-47874400D02*
X27137500Y-47725000D01*
D28*
X21300600Y-47874400D02*
X19175000Y-50000000D01*
%TD*%
M02*
