M48
; DRILL file {KiCad 8.0.0} date 2026-09-16T17:54:58-0400
; FORMAT={-:-/ absolute / metric / decimal}
; #@! TF.CreationDate,2026-09-16T17:54:58-04:00
; #@! TF.GenerationSoftware,Kicad,Pcbnew,8.0.0
; #@! TF.FileFunction,Plated,1,2,PTH
FMAT,2
METRIC
; #@! TA.AperFunction,Plated,PTH,ViaDrill
T1C0.300
; #@! TA.AperFunction,Plated,PTH,ComponentDrill
T2C0.750
; #@! TA.AperFunction,Plated,PTH,ComponentDrill
T3C1.000
%
G90
G05
T1
X10.157Y-24.989
X11.825Y-29.018
X12.0Y-4.701
X12.514Y-56.266
X12.764Y-55.362
X13.0Y-4.701
X13.385Y-72.917
X13.47Y-56.068
X14.0Y-4.702
X14.0Y-64.632
X14.044Y-44.011
X14.268Y-59.133
X14.611Y-43.394
X15.0Y-76.715
X15.247Y-55.734
X17.0Y-7.307
X17.934Y-19.358
X18.009Y-42.108
X18.467Y-57.625
X18.626Y-44.45
X19.0Y-4.7
X19.666Y-31.671
X19.666Y-34.667
X19.977Y-26.573
X19.98Y-25.41
X19.995Y-23.156
X21.128Y-4.741
X23.895Y-54.06
X25.254Y-48.511
X25.874Y-49.139
X25.898Y-51.625
X27.627Y-64.844
X28.722Y-52.009
X28.723Y-48.814
X28.723Y-50.174
X28.727Y-59.346
X28.735Y-51.128
X29.125Y-52.811
X29.25Y-65.609
X29.365Y-40.762
X30.315Y-50.221
X30.873Y-27.833
X31.508Y-53.901
X31.508Y-59.548
X31.593Y-46.507
X33.175Y-40.778
X34.445Y-40.755
X35.715Y-40.756
X36.985Y-43.766
X37.696Y-43.146
X38.93Y-5.891
X40.025Y-21.516
X40.393Y-43.549
X40.396Y-7.318
X40.928Y-44.153
X41.0Y-4.704
X41.0Y-79.284
X41.555Y-57.607
X42.0Y-4.72
X42.0Y-79.278
X43.0Y-7.301
X43.0Y-76.702
X43.439Y-69.416
X43.476Y-56.322
X44.049Y-57.449
X44.578Y-7.752
X45.179Y-36.99
X45.411Y-57.725
X46.0Y-36.172
X47.0Y-4.701
X48.0Y-4.71
X48.43Y-44.514
X48.799Y-65.367
X48.801Y-43.226
X50.004Y-62.735
X50.225Y-46.939
T2
X57.0Y-42.0
X59.0Y-42.0
T3
X57.0Y-52.0
X57.0Y-54.54
X57.0Y-57.08
X59.0Y-20.0
X59.0Y-23.5
X59.0Y-31.1
X59.0Y-34.5
M30
