%TF.GenerationSoftware,KiCad,Pcbnew,8.0.0*%
%TF.CreationDate,2026-09-16T17:54:58-04:00*%
%TF.ProjectId,EchoSafe_RevA,4563686f-5361-4666-955f-526576412e6b,rev?*%
%TF.SameCoordinates,Original*%
%TF.FileFunction,Legend,Top*%
%TF.FilePolarity,Positive*%
%FSLAX46Y46*%
G04 Gerber Fmt 4.6, Leading zero omitted, Abs format (unit mm)*
G04 Created by KiCad (PCBNEW 8.0.0) date 2026-09-16 17:54:58*
%MOMM*%
%LPD*%
G01*
G04 APERTURE LIST*
%ADD10C,0.150000*%
%ADD11C,0.158750*%
%ADD12C,0.120000*%
%ADD13C,0.152400*%
%ADD14C,0.000000*%
%ADD15C,0.250000*%
G04 APERTURE END LIST*
D10*
X50833333Y-54929580D02*
X50785714Y-54977200D01*
X50785714Y-54977200D02*
X50642857Y-55024819D01*
X50642857Y-55024819D02*
X50547619Y-55024819D01*
X50547619Y-55024819D02*
X50404762Y-54977200D01*
X50404762Y-54977200D02*
X50309524Y-54881961D01*
X50309524Y-54881961D02*
X50261905Y-54786723D01*
X50261905Y-54786723D02*
X50214286Y-54596247D01*
X50214286Y-54596247D02*
X50214286Y-54453390D01*
X50214286Y-54453390D02*
X50261905Y-54262914D01*
X50261905Y-54262914D02*
X50309524Y-54167676D01*
X50309524Y-54167676D02*
X50404762Y-54072438D01*
X50404762Y-54072438D02*
X50547619Y-54024819D01*
X50547619Y-54024819D02*
X50642857Y-54024819D01*
X50642857Y-54024819D02*
X50785714Y-54072438D01*
X50785714Y-54072438D02*
X50833333Y-54120057D01*
X51166667Y-54024819D02*
X51785714Y-54024819D01*
X51785714Y-54024819D02*
X51452381Y-54405771D01*
X51452381Y-54405771D02*
X51595238Y-54405771D01*
X51595238Y-54405771D02*
X51690476Y-54453390D01*
X51690476Y-54453390D02*
X51738095Y-54501009D01*
X51738095Y-54501009D02*
X51785714Y-54596247D01*
X51785714Y-54596247D02*
X51785714Y-54834342D01*
X51785714Y-54834342D02*
X51738095Y-54929580D01*
X51738095Y-54929580D02*
X51690476Y-54977200D01*
X51690476Y-54977200D02*
X51595238Y-55024819D01*
X51595238Y-55024819D02*
X51309524Y-55024819D01*
X51309524Y-55024819D02*
X51214286Y-54977200D01*
X51214286Y-54977200D02*
X51166667Y-54929580D01*
X44238095Y-41004819D02*
X44238095Y-41814342D01*
X44238095Y-41814342D02*
X44285714Y-41909580D01*
X44285714Y-41909580D02*
X44333333Y-41957200D01*
X44333333Y-41957200D02*
X44428571Y-42004819D01*
X44428571Y-42004819D02*
X44619047Y-42004819D01*
X44619047Y-42004819D02*
X44714285Y-41957200D01*
X44714285Y-41957200D02*
X44761904Y-41909580D01*
X44761904Y-41909580D02*
X44809523Y-41814342D01*
X44809523Y-41814342D02*
X44809523Y-41004819D01*
X45714285Y-41004819D02*
X45523809Y-41004819D01*
X45523809Y-41004819D02*
X45428571Y-41052438D01*
X45428571Y-41052438D02*
X45380952Y-41100057D01*
X45380952Y-41100057D02*
X45285714Y-41242914D01*
X45285714Y-41242914D02*
X45238095Y-41433390D01*
X45238095Y-41433390D02*
X45238095Y-41814342D01*
X45238095Y-41814342D02*
X45285714Y-41909580D01*
X45285714Y-41909580D02*
X45333333Y-41957200D01*
X45333333Y-41957200D02*
X45428571Y-42004819D01*
X45428571Y-42004819D02*
X45619047Y-42004819D01*
X45619047Y-42004819D02*
X45714285Y-41957200D01*
X45714285Y-41957200D02*
X45761904Y-41909580D01*
X45761904Y-41909580D02*
X45809523Y-41814342D01*
X45809523Y-41814342D02*
X45809523Y-41576247D01*
X45809523Y-41576247D02*
X45761904Y-41481009D01*
X45761904Y-41481009D02*
X45714285Y-41433390D01*
X45714285Y-41433390D02*
X45619047Y-41385771D01*
X45619047Y-41385771D02*
X45428571Y-41385771D01*
X45428571Y-41385771D02*
X45333333Y-41433390D01*
X45333333Y-41433390D02*
X45285714Y-41481009D01*
X45285714Y-41481009D02*
X45238095Y-41576247D01*
X10833333Y-29024819D02*
X10500000Y-28548628D01*
X10261905Y-29024819D02*
X10261905Y-28024819D01*
X10261905Y-28024819D02*
X10642857Y-28024819D01*
X10642857Y-28024819D02*
X10738095Y-28072438D01*
X10738095Y-28072438D02*
X10785714Y-28120057D01*
X10785714Y-28120057D02*
X10833333Y-28215295D01*
X10833333Y-28215295D02*
X10833333Y-28358152D01*
X10833333Y-28358152D02*
X10785714Y-28453390D01*
X10785714Y-28453390D02*
X10738095Y-28501009D01*
X10738095Y-28501009D02*
X10642857Y-28548628D01*
X10642857Y-28548628D02*
X10261905Y-28548628D01*
X11785714Y-29024819D02*
X11214286Y-29024819D01*
X11500000Y-29024819D02*
X11500000Y-28024819D01*
X11500000Y-28024819D02*
X11404762Y-28167676D01*
X11404762Y-28167676D02*
X11309524Y-28262914D01*
X11309524Y-28262914D02*
X11214286Y-28310533D01*
X29238095Y-70054819D02*
X29238095Y-70864342D01*
X29238095Y-70864342D02*
X29285714Y-70959580D01*
X29285714Y-70959580D02*
X29333333Y-71007200D01*
X29333333Y-71007200D02*
X29428571Y-71054819D01*
X29428571Y-71054819D02*
X29619047Y-71054819D01*
X29619047Y-71054819D02*
X29714285Y-71007200D01*
X29714285Y-71007200D02*
X29761904Y-70959580D01*
X29761904Y-70959580D02*
X29809523Y-70864342D01*
X29809523Y-70864342D02*
X29809523Y-70054819D01*
X30238095Y-70150057D02*
X30285714Y-70102438D01*
X30285714Y-70102438D02*
X30380952Y-70054819D01*
X30380952Y-70054819D02*
X30619047Y-70054819D01*
X30619047Y-70054819D02*
X30714285Y-70102438D01*
X30714285Y-70102438D02*
X30761904Y-70150057D01*
X30761904Y-70150057D02*
X30809523Y-70245295D01*
X30809523Y-70245295D02*
X30809523Y-70340533D01*
X30809523Y-70340533D02*
X30761904Y-70483390D01*
X30761904Y-70483390D02*
X30190476Y-71054819D01*
X30190476Y-71054819D02*
X30809523Y-71054819D01*
X27510800Y-66454819D02*
X27510800Y-66692914D01*
X27272705Y-66597676D02*
X27510800Y-66692914D01*
X27510800Y-66692914D02*
X27748895Y-66597676D01*
X27367943Y-66883390D02*
X27510800Y-66692914D01*
X27510800Y-66692914D02*
X27653657Y-66883390D01*
X9833333Y-56929580D02*
X9785714Y-56977200D01*
X9785714Y-56977200D02*
X9642857Y-57024819D01*
X9642857Y-57024819D02*
X9547619Y-57024819D01*
X9547619Y-57024819D02*
X9404762Y-56977200D01*
X9404762Y-56977200D02*
X9309524Y-56881961D01*
X9309524Y-56881961D02*
X9261905Y-56786723D01*
X9261905Y-56786723D02*
X9214286Y-56596247D01*
X9214286Y-56596247D02*
X9214286Y-56453390D01*
X9214286Y-56453390D02*
X9261905Y-56262914D01*
X9261905Y-56262914D02*
X9309524Y-56167676D01*
X9309524Y-56167676D02*
X9404762Y-56072438D01*
X9404762Y-56072438D02*
X9547619Y-56024819D01*
X9547619Y-56024819D02*
X9642857Y-56024819D01*
X9642857Y-56024819D02*
X9785714Y-56072438D01*
X9785714Y-56072438D02*
X9833333Y-56120057D01*
X10166667Y-56024819D02*
X10833333Y-56024819D01*
X10833333Y-56024819D02*
X10404762Y-57024819D01*
X10357142Y-32929580D02*
X10309523Y-32977200D01*
X10309523Y-32977200D02*
X10166666Y-33024819D01*
X10166666Y-33024819D02*
X10071428Y-33024819D01*
X10071428Y-33024819D02*
X9928571Y-32977200D01*
X9928571Y-32977200D02*
X9833333Y-32881961D01*
X9833333Y-32881961D02*
X9785714Y-32786723D01*
X9785714Y-32786723D02*
X9738095Y-32596247D01*
X9738095Y-32596247D02*
X9738095Y-32453390D01*
X9738095Y-32453390D02*
X9785714Y-32262914D01*
X9785714Y-32262914D02*
X9833333Y-32167676D01*
X9833333Y-32167676D02*
X9928571Y-32072438D01*
X9928571Y-32072438D02*
X10071428Y-32024819D01*
X10071428Y-32024819D02*
X10166666Y-32024819D01*
X10166666Y-32024819D02*
X10309523Y-32072438D01*
X10309523Y-32072438D02*
X10357142Y-32120057D01*
X11309523Y-33024819D02*
X10738095Y-33024819D01*
X11023809Y-33024819D02*
X11023809Y-32024819D01*
X11023809Y-32024819D02*
X10928571Y-32167676D01*
X10928571Y-32167676D02*
X10833333Y-32262914D01*
X10833333Y-32262914D02*
X10738095Y-32310533D01*
X11880952Y-32453390D02*
X11785714Y-32405771D01*
X11785714Y-32405771D02*
X11738095Y-32358152D01*
X11738095Y-32358152D02*
X11690476Y-32262914D01*
X11690476Y-32262914D02*
X11690476Y-32215295D01*
X11690476Y-32215295D02*
X11738095Y-32120057D01*
X11738095Y-32120057D02*
X11785714Y-32072438D01*
X11785714Y-32072438D02*
X11880952Y-32024819D01*
X11880952Y-32024819D02*
X12071428Y-32024819D01*
X12071428Y-32024819D02*
X12166666Y-32072438D01*
X12166666Y-32072438D02*
X12214285Y-32120057D01*
X12214285Y-32120057D02*
X12261904Y-32215295D01*
X12261904Y-32215295D02*
X12261904Y-32262914D01*
X12261904Y-32262914D02*
X12214285Y-32358152D01*
X12214285Y-32358152D02*
X12166666Y-32405771D01*
X12166666Y-32405771D02*
X12071428Y-32453390D01*
X12071428Y-32453390D02*
X11880952Y-32453390D01*
X11880952Y-32453390D02*
X11785714Y-32501009D01*
X11785714Y-32501009D02*
X11738095Y-32548628D01*
X11738095Y-32548628D02*
X11690476Y-32643866D01*
X11690476Y-32643866D02*
X11690476Y-32834342D01*
X11690476Y-32834342D02*
X11738095Y-32929580D01*
X11738095Y-32929580D02*
X11785714Y-32977200D01*
X11785714Y-32977200D02*
X11880952Y-33024819D01*
X11880952Y-33024819D02*
X12071428Y-33024819D01*
X12071428Y-33024819D02*
X12166666Y-32977200D01*
X12166666Y-32977200D02*
X12214285Y-32929580D01*
X12214285Y-32929580D02*
X12261904Y-32834342D01*
X12261904Y-32834342D02*
X12261904Y-32643866D01*
X12261904Y-32643866D02*
X12214285Y-32548628D01*
X12214285Y-32548628D02*
X12166666Y-32501009D01*
X12166666Y-32501009D02*
X12071428Y-32453390D01*
X29238095Y-44604819D02*
X29238095Y-45414342D01*
X29238095Y-45414342D02*
X29285714Y-45509580D01*
X29285714Y-45509580D02*
X29333333Y-45557200D01*
X29333333Y-45557200D02*
X29428571Y-45604819D01*
X29428571Y-45604819D02*
X29619047Y-45604819D01*
X29619047Y-45604819D02*
X29714285Y-45557200D01*
X29714285Y-45557200D02*
X29761904Y-45509580D01*
X29761904Y-45509580D02*
X29809523Y-45414342D01*
X29809523Y-45414342D02*
X29809523Y-44604819D01*
X30761904Y-44604819D02*
X30285714Y-44604819D01*
X30285714Y-44604819D02*
X30238095Y-45081009D01*
X30238095Y-45081009D02*
X30285714Y-45033390D01*
X30285714Y-45033390D02*
X30380952Y-44985771D01*
X30380952Y-44985771D02*
X30619047Y-44985771D01*
X30619047Y-44985771D02*
X30714285Y-45033390D01*
X30714285Y-45033390D02*
X30761904Y-45081009D01*
X30761904Y-45081009D02*
X30809523Y-45176247D01*
X30809523Y-45176247D02*
X30809523Y-45414342D01*
X30809523Y-45414342D02*
X30761904Y-45509580D01*
X30761904Y-45509580D02*
X30714285Y-45557200D01*
X30714285Y-45557200D02*
X30619047Y-45604819D01*
X30619047Y-45604819D02*
X30380952Y-45604819D01*
X30380952Y-45604819D02*
X30285714Y-45557200D01*
X30285714Y-45557200D02*
X30238095Y-45509580D01*
X50833333Y-50929580D02*
X50785714Y-50977200D01*
X50785714Y-50977200D02*
X50642857Y-51024819D01*
X50642857Y-51024819D02*
X50547619Y-51024819D01*
X50547619Y-51024819D02*
X50404762Y-50977200D01*
X50404762Y-50977200D02*
X50309524Y-50881961D01*
X50309524Y-50881961D02*
X50261905Y-50786723D01*
X50261905Y-50786723D02*
X50214286Y-50596247D01*
X50214286Y-50596247D02*
X50214286Y-50453390D01*
X50214286Y-50453390D02*
X50261905Y-50262914D01*
X50261905Y-50262914D02*
X50309524Y-50167676D01*
X50309524Y-50167676D02*
X50404762Y-50072438D01*
X50404762Y-50072438D02*
X50547619Y-50024819D01*
X50547619Y-50024819D02*
X50642857Y-50024819D01*
X50642857Y-50024819D02*
X50785714Y-50072438D01*
X50785714Y-50072438D02*
X50833333Y-50120057D01*
X51214286Y-50120057D02*
X51261905Y-50072438D01*
X51261905Y-50072438D02*
X51357143Y-50024819D01*
X51357143Y-50024819D02*
X51595238Y-50024819D01*
X51595238Y-50024819D02*
X51690476Y-50072438D01*
X51690476Y-50072438D02*
X51738095Y-50120057D01*
X51738095Y-50120057D02*
X51785714Y-50215295D01*
X51785714Y-50215295D02*
X51785714Y-50310533D01*
X51785714Y-50310533D02*
X51738095Y-50453390D01*
X51738095Y-50453390D02*
X51166667Y-51024819D01*
X51166667Y-51024819D02*
X51785714Y-51024819D01*
X50833333Y-46929580D02*
X50785714Y-46977200D01*
X50785714Y-46977200D02*
X50642857Y-47024819D01*
X50642857Y-47024819D02*
X50547619Y-47024819D01*
X50547619Y-47024819D02*
X50404762Y-46977200D01*
X50404762Y-46977200D02*
X50309524Y-46881961D01*
X50309524Y-46881961D02*
X50261905Y-46786723D01*
X50261905Y-46786723D02*
X50214286Y-46596247D01*
X50214286Y-46596247D02*
X50214286Y-46453390D01*
X50214286Y-46453390D02*
X50261905Y-46262914D01*
X50261905Y-46262914D02*
X50309524Y-46167676D01*
X50309524Y-46167676D02*
X50404762Y-46072438D01*
X50404762Y-46072438D02*
X50547619Y-46024819D01*
X50547619Y-46024819D02*
X50642857Y-46024819D01*
X50642857Y-46024819D02*
X50785714Y-46072438D01*
X50785714Y-46072438D02*
X50833333Y-46120057D01*
X51785714Y-47024819D02*
X51214286Y-47024819D01*
X51500000Y-47024819D02*
X51500000Y-46024819D01*
X51500000Y-46024819D02*
X51404762Y-46167676D01*
X51404762Y-46167676D02*
X51309524Y-46262914D01*
X51309524Y-46262914D02*
X51214286Y-46310533D01*
X50833333Y-38929580D02*
X50785714Y-38977200D01*
X50785714Y-38977200D02*
X50642857Y-39024819D01*
X50642857Y-39024819D02*
X50547619Y-39024819D01*
X50547619Y-39024819D02*
X50404762Y-38977200D01*
X50404762Y-38977200D02*
X50309524Y-38881961D01*
X50309524Y-38881961D02*
X50261905Y-38786723D01*
X50261905Y-38786723D02*
X50214286Y-38596247D01*
X50214286Y-38596247D02*
X50214286Y-38453390D01*
X50214286Y-38453390D02*
X50261905Y-38262914D01*
X50261905Y-38262914D02*
X50309524Y-38167676D01*
X50309524Y-38167676D02*
X50404762Y-38072438D01*
X50404762Y-38072438D02*
X50547619Y-38024819D01*
X50547619Y-38024819D02*
X50642857Y-38024819D01*
X50642857Y-38024819D02*
X50785714Y-38072438D01*
X50785714Y-38072438D02*
X50833333Y-38120057D01*
X51690476Y-38024819D02*
X51500000Y-38024819D01*
X51500000Y-38024819D02*
X51404762Y-38072438D01*
X51404762Y-38072438D02*
X51357143Y-38120057D01*
X51357143Y-38120057D02*
X51261905Y-38262914D01*
X51261905Y-38262914D02*
X51214286Y-38453390D01*
X51214286Y-38453390D02*
X51214286Y-38834342D01*
X51214286Y-38834342D02*
X51261905Y-38929580D01*
X51261905Y-38929580D02*
X51309524Y-38977200D01*
X51309524Y-38977200D02*
X51404762Y-39024819D01*
X51404762Y-39024819D02*
X51595238Y-39024819D01*
X51595238Y-39024819D02*
X51690476Y-38977200D01*
X51690476Y-38977200D02*
X51738095Y-38929580D01*
X51738095Y-38929580D02*
X51785714Y-38834342D01*
X51785714Y-38834342D02*
X51785714Y-38596247D01*
X51785714Y-38596247D02*
X51738095Y-38501009D01*
X51738095Y-38501009D02*
X51690476Y-38453390D01*
X51690476Y-38453390D02*
X51595238Y-38405771D01*
X51595238Y-38405771D02*
X51404762Y-38405771D01*
X51404762Y-38405771D02*
X51309524Y-38453390D01*
X51309524Y-38453390D02*
X51261905Y-38501009D01*
X51261905Y-38501009D02*
X51214286Y-38596247D01*
X43666666Y-75474819D02*
X43666666Y-76189104D01*
X43666666Y-76189104D02*
X43619047Y-76331961D01*
X43619047Y-76331961D02*
X43523809Y-76427200D01*
X43523809Y-76427200D02*
X43380952Y-76474819D01*
X43380952Y-76474819D02*
X43285714Y-76474819D01*
X44619047Y-75474819D02*
X44142857Y-75474819D01*
X44142857Y-75474819D02*
X44095238Y-75951009D01*
X44095238Y-75951009D02*
X44142857Y-75903390D01*
X44142857Y-75903390D02*
X44238095Y-75855771D01*
X44238095Y-75855771D02*
X44476190Y-75855771D01*
X44476190Y-75855771D02*
X44571428Y-75903390D01*
X44571428Y-75903390D02*
X44619047Y-75951009D01*
X44619047Y-75951009D02*
X44666666Y-76046247D01*
X44666666Y-76046247D02*
X44666666Y-76284342D01*
X44666666Y-76284342D02*
X44619047Y-76379580D01*
X44619047Y-76379580D02*
X44571428Y-76427200D01*
X44571428Y-76427200D02*
X44476190Y-76474819D01*
X44476190Y-76474819D02*
X44238095Y-76474819D01*
X44238095Y-76474819D02*
X44142857Y-76427200D01*
X44142857Y-76427200D02*
X44095238Y-76379580D01*
X14238095Y-41004819D02*
X14238095Y-41814342D01*
X14238095Y-41814342D02*
X14285714Y-41909580D01*
X14285714Y-41909580D02*
X14333333Y-41957200D01*
X14333333Y-41957200D02*
X14428571Y-42004819D01*
X14428571Y-42004819D02*
X14619047Y-42004819D01*
X14619047Y-42004819D02*
X14714285Y-41957200D01*
X14714285Y-41957200D02*
X14761904Y-41909580D01*
X14761904Y-41909580D02*
X14809523Y-41814342D01*
X14809523Y-41814342D02*
X14809523Y-41004819D01*
X15190476Y-41004819D02*
X15809523Y-41004819D01*
X15809523Y-41004819D02*
X15476190Y-41385771D01*
X15476190Y-41385771D02*
X15619047Y-41385771D01*
X15619047Y-41385771D02*
X15714285Y-41433390D01*
X15714285Y-41433390D02*
X15761904Y-41481009D01*
X15761904Y-41481009D02*
X15809523Y-41576247D01*
X15809523Y-41576247D02*
X15809523Y-41814342D01*
X15809523Y-41814342D02*
X15761904Y-41909580D01*
X15761904Y-41909580D02*
X15714285Y-41957200D01*
X15714285Y-41957200D02*
X15619047Y-42004819D01*
X15619047Y-42004819D02*
X15333333Y-42004819D01*
X15333333Y-42004819D02*
X15238095Y-41957200D01*
X15238095Y-41957200D02*
X15190476Y-41909580D01*
D11*
X58576667Y-16309271D02*
X58576667Y-17216414D01*
X58576667Y-17216414D02*
X58516190Y-17397842D01*
X58516190Y-17397842D02*
X58395238Y-17518795D01*
X58395238Y-17518795D02*
X58213809Y-17579271D01*
X58213809Y-17579271D02*
X58092857Y-17579271D01*
X59846667Y-17579271D02*
X59120952Y-17579271D01*
X59483809Y-17579271D02*
X59483809Y-16309271D01*
X59483809Y-16309271D02*
X59362857Y-16490699D01*
X59362857Y-16490699D02*
X59241905Y-16611652D01*
X59241905Y-16611652D02*
X59120952Y-16672128D01*
D12*
X61436089Y-23444807D02*
X61550375Y-23482902D01*
X61550375Y-23482902D02*
X61588470Y-23520998D01*
X61588470Y-23520998D02*
X61626566Y-23597188D01*
X61626566Y-23597188D02*
X61626566Y-23711474D01*
X61626566Y-23711474D02*
X61588470Y-23787664D01*
X61588470Y-23787664D02*
X61550375Y-23825760D01*
X61550375Y-23825760D02*
X61474185Y-23863855D01*
X61474185Y-23863855D02*
X61169423Y-23863855D01*
X61169423Y-23863855D02*
X61169423Y-23063855D01*
X61169423Y-23063855D02*
X61436089Y-23063855D01*
X61436089Y-23063855D02*
X61512280Y-23101950D01*
X61512280Y-23101950D02*
X61550375Y-23140045D01*
X61550375Y-23140045D02*
X61588470Y-23216236D01*
X61588470Y-23216236D02*
X61588470Y-23292426D01*
X61588470Y-23292426D02*
X61550375Y-23368617D01*
X61550375Y-23368617D02*
X61512280Y-23406712D01*
X61512280Y-23406712D02*
X61436089Y-23444807D01*
X61436089Y-23444807D02*
X61169423Y-23444807D01*
X61969423Y-23559093D02*
X62578947Y-23559093D01*
X62274185Y-23863855D02*
X62274185Y-23254331D01*
X61436089Y-31044807D02*
X61550375Y-31082902D01*
X61550375Y-31082902D02*
X61588470Y-31120998D01*
X61588470Y-31120998D02*
X61626566Y-31197188D01*
X61626566Y-31197188D02*
X61626566Y-31311474D01*
X61626566Y-31311474D02*
X61588470Y-31387664D01*
X61588470Y-31387664D02*
X61550375Y-31425760D01*
X61550375Y-31425760D02*
X61474185Y-31463855D01*
X61474185Y-31463855D02*
X61169423Y-31463855D01*
X61169423Y-31463855D02*
X61169423Y-30663855D01*
X61169423Y-30663855D02*
X61436089Y-30663855D01*
X61436089Y-30663855D02*
X61512280Y-30701950D01*
X61512280Y-30701950D02*
X61550375Y-30740045D01*
X61550375Y-30740045D02*
X61588470Y-30816236D01*
X61588470Y-30816236D02*
X61588470Y-30892426D01*
X61588470Y-30892426D02*
X61550375Y-30968617D01*
X61550375Y-30968617D02*
X61512280Y-31006712D01*
X61512280Y-31006712D02*
X61436089Y-31044807D01*
X61436089Y-31044807D02*
X61169423Y-31044807D01*
X61969423Y-31159093D02*
X62578947Y-31159093D01*
X61321804Y-19563855D02*
X61474185Y-19563855D01*
X61474185Y-19563855D02*
X61550375Y-19601950D01*
X61550375Y-19601950D02*
X61626566Y-19678140D01*
X61626566Y-19678140D02*
X61664661Y-19830521D01*
X61664661Y-19830521D02*
X61664661Y-20097188D01*
X61664661Y-20097188D02*
X61626566Y-20249569D01*
X61626566Y-20249569D02*
X61550375Y-20325760D01*
X61550375Y-20325760D02*
X61474185Y-20363855D01*
X61474185Y-20363855D02*
X61321804Y-20363855D01*
X61321804Y-20363855D02*
X61245613Y-20325760D01*
X61245613Y-20325760D02*
X61169423Y-20249569D01*
X61169423Y-20249569D02*
X61131327Y-20097188D01*
X61131327Y-20097188D02*
X61131327Y-19830521D01*
X61131327Y-19830521D02*
X61169423Y-19678140D01*
X61169423Y-19678140D02*
X61245613Y-19601950D01*
X61245613Y-19601950D02*
X61321804Y-19563855D01*
X62007518Y-19563855D02*
X62007518Y-20211474D01*
X62007518Y-20211474D02*
X62045613Y-20287664D01*
X62045613Y-20287664D02*
X62083708Y-20325760D01*
X62083708Y-20325760D02*
X62159899Y-20363855D01*
X62159899Y-20363855D02*
X62312280Y-20363855D01*
X62312280Y-20363855D02*
X62388470Y-20325760D01*
X62388470Y-20325760D02*
X62426565Y-20287664D01*
X62426565Y-20287664D02*
X62464661Y-20211474D01*
X62464661Y-20211474D02*
X62464661Y-19563855D01*
X62731327Y-19563855D02*
X63188470Y-19563855D01*
X62959898Y-20363855D02*
X62959898Y-19563855D01*
X63455137Y-20059093D02*
X64064661Y-20059093D01*
X63759899Y-20363855D02*
X63759899Y-19754331D01*
X61321804Y-34063855D02*
X61474185Y-34063855D01*
X61474185Y-34063855D02*
X61550375Y-34101950D01*
X61550375Y-34101950D02*
X61626566Y-34178140D01*
X61626566Y-34178140D02*
X61664661Y-34330521D01*
X61664661Y-34330521D02*
X61664661Y-34597188D01*
X61664661Y-34597188D02*
X61626566Y-34749569D01*
X61626566Y-34749569D02*
X61550375Y-34825760D01*
X61550375Y-34825760D02*
X61474185Y-34863855D01*
X61474185Y-34863855D02*
X61321804Y-34863855D01*
X61321804Y-34863855D02*
X61245613Y-34825760D01*
X61245613Y-34825760D02*
X61169423Y-34749569D01*
X61169423Y-34749569D02*
X61131327Y-34597188D01*
X61131327Y-34597188D02*
X61131327Y-34330521D01*
X61131327Y-34330521D02*
X61169423Y-34178140D01*
X61169423Y-34178140D02*
X61245613Y-34101950D01*
X61245613Y-34101950D02*
X61321804Y-34063855D01*
X62007518Y-34063855D02*
X62007518Y-34711474D01*
X62007518Y-34711474D02*
X62045613Y-34787664D01*
X62045613Y-34787664D02*
X62083708Y-34825760D01*
X62083708Y-34825760D02*
X62159899Y-34863855D01*
X62159899Y-34863855D02*
X62312280Y-34863855D01*
X62312280Y-34863855D02*
X62388470Y-34825760D01*
X62388470Y-34825760D02*
X62426565Y-34787664D01*
X62426565Y-34787664D02*
X62464661Y-34711474D01*
X62464661Y-34711474D02*
X62464661Y-34063855D01*
X62731327Y-34063855D02*
X63188470Y-34063855D01*
X62959898Y-34863855D02*
X62959898Y-34063855D01*
X63455137Y-34559093D02*
X64064661Y-34559093D01*
D10*
X43666666Y-3474819D02*
X43666666Y-4189104D01*
X43666666Y-4189104D02*
X43619047Y-4331961D01*
X43619047Y-4331961D02*
X43523809Y-4427200D01*
X43523809Y-4427200D02*
X43380952Y-4474819D01*
X43380952Y-4474819D02*
X43285714Y-4474819D01*
X44047619Y-3474819D02*
X44666666Y-3474819D01*
X44666666Y-3474819D02*
X44333333Y-3855771D01*
X44333333Y-3855771D02*
X44476190Y-3855771D01*
X44476190Y-3855771D02*
X44571428Y-3903390D01*
X44571428Y-3903390D02*
X44619047Y-3951009D01*
X44619047Y-3951009D02*
X44666666Y-4046247D01*
X44666666Y-4046247D02*
X44666666Y-4284342D01*
X44666666Y-4284342D02*
X44619047Y-4379580D01*
X44619047Y-4379580D02*
X44571428Y-4427200D01*
X44571428Y-4427200D02*
X44476190Y-4474819D01*
X44476190Y-4474819D02*
X44190476Y-4474819D01*
X44190476Y-4474819D02*
X44095238Y-4427200D01*
X44095238Y-4427200D02*
X44047619Y-4379580D01*
X10357142Y-22929580D02*
X10309523Y-22977200D01*
X10309523Y-22977200D02*
X10166666Y-23024819D01*
X10166666Y-23024819D02*
X10071428Y-23024819D01*
X10071428Y-23024819D02*
X9928571Y-22977200D01*
X9928571Y-22977200D02*
X9833333Y-22881961D01*
X9833333Y-22881961D02*
X9785714Y-22786723D01*
X9785714Y-22786723D02*
X9738095Y-22596247D01*
X9738095Y-22596247D02*
X9738095Y-22453390D01*
X9738095Y-22453390D02*
X9785714Y-22262914D01*
X9785714Y-22262914D02*
X9833333Y-22167676D01*
X9833333Y-22167676D02*
X9928571Y-22072438D01*
X9928571Y-22072438D02*
X10071428Y-22024819D01*
X10071428Y-22024819D02*
X10166666Y-22024819D01*
X10166666Y-22024819D02*
X10309523Y-22072438D01*
X10309523Y-22072438D02*
X10357142Y-22120057D01*
X11309523Y-23024819D02*
X10738095Y-23024819D01*
X11023809Y-23024819D02*
X11023809Y-22024819D01*
X11023809Y-22024819D02*
X10928571Y-22167676D01*
X10928571Y-22167676D02*
X10833333Y-22262914D01*
X10833333Y-22262914D02*
X10738095Y-22310533D01*
X11642857Y-22024819D02*
X12309523Y-22024819D01*
X12309523Y-22024819D02*
X11880952Y-23024819D01*
X56333333Y-50124819D02*
X55857143Y-50124819D01*
X55857143Y-50124819D02*
X55857143Y-49124819D01*
X56666667Y-50124819D02*
X56666667Y-49124819D01*
X56666667Y-49124819D02*
X56904762Y-49124819D01*
X56904762Y-49124819D02*
X57047619Y-49172438D01*
X57047619Y-49172438D02*
X57142857Y-49267676D01*
X57142857Y-49267676D02*
X57190476Y-49362914D01*
X57190476Y-49362914D02*
X57238095Y-49553390D01*
X57238095Y-49553390D02*
X57238095Y-49696247D01*
X57238095Y-49696247D02*
X57190476Y-49886723D01*
X57190476Y-49886723D02*
X57142857Y-49981961D01*
X57142857Y-49981961D02*
X57047619Y-50077200D01*
X57047619Y-50077200D02*
X56904762Y-50124819D01*
X56904762Y-50124819D02*
X56666667Y-50124819D01*
X58190476Y-50124819D02*
X57619048Y-50124819D01*
X57904762Y-50124819D02*
X57904762Y-49124819D01*
X57904762Y-49124819D02*
X57809524Y-49267676D01*
X57809524Y-49267676D02*
X57714286Y-49362914D01*
X57714286Y-49362914D02*
X57619048Y-49410533D01*
X44238095Y-55004819D02*
X44238095Y-55814342D01*
X44238095Y-55814342D02*
X44285714Y-55909580D01*
X44285714Y-55909580D02*
X44333333Y-55957200D01*
X44333333Y-55957200D02*
X44428571Y-56004819D01*
X44428571Y-56004819D02*
X44619047Y-56004819D01*
X44619047Y-56004819D02*
X44714285Y-55957200D01*
X44714285Y-55957200D02*
X44761904Y-55909580D01*
X44761904Y-55909580D02*
X44809523Y-55814342D01*
X44809523Y-55814342D02*
X44809523Y-55004819D01*
X45428571Y-55433390D02*
X45333333Y-55385771D01*
X45333333Y-55385771D02*
X45285714Y-55338152D01*
X45285714Y-55338152D02*
X45238095Y-55242914D01*
X45238095Y-55242914D02*
X45238095Y-55195295D01*
X45238095Y-55195295D02*
X45285714Y-55100057D01*
X45285714Y-55100057D02*
X45333333Y-55052438D01*
X45333333Y-55052438D02*
X45428571Y-55004819D01*
X45428571Y-55004819D02*
X45619047Y-55004819D01*
X45619047Y-55004819D02*
X45714285Y-55052438D01*
X45714285Y-55052438D02*
X45761904Y-55100057D01*
X45761904Y-55100057D02*
X45809523Y-55195295D01*
X45809523Y-55195295D02*
X45809523Y-55242914D01*
X45809523Y-55242914D02*
X45761904Y-55338152D01*
X45761904Y-55338152D02*
X45714285Y-55385771D01*
X45714285Y-55385771D02*
X45619047Y-55433390D01*
X45619047Y-55433390D02*
X45428571Y-55433390D01*
X45428571Y-55433390D02*
X45333333Y-55481009D01*
X45333333Y-55481009D02*
X45285714Y-55528628D01*
X45285714Y-55528628D02*
X45238095Y-55623866D01*
X45238095Y-55623866D02*
X45238095Y-55814342D01*
X45238095Y-55814342D02*
X45285714Y-55909580D01*
X45285714Y-55909580D02*
X45333333Y-55957200D01*
X45333333Y-55957200D02*
X45428571Y-56004819D01*
X45428571Y-56004819D02*
X45619047Y-56004819D01*
X45619047Y-56004819D02*
X45714285Y-55957200D01*
X45714285Y-55957200D02*
X45761904Y-55909580D01*
X45761904Y-55909580D02*
X45809523Y-55814342D01*
X45809523Y-55814342D02*
X45809523Y-55623866D01*
X45809523Y-55623866D02*
X45761904Y-55528628D01*
X45761904Y-55528628D02*
X45714285Y-55481009D01*
X45714285Y-55481009D02*
X45619047Y-55433390D01*
X35357142Y-48929580D02*
X35309523Y-48977200D01*
X35309523Y-48977200D02*
X35166666Y-49024819D01*
X35166666Y-49024819D02*
X35071428Y-49024819D01*
X35071428Y-49024819D02*
X34928571Y-48977200D01*
X34928571Y-48977200D02*
X34833333Y-48881961D01*
X34833333Y-48881961D02*
X34785714Y-48786723D01*
X34785714Y-48786723D02*
X34738095Y-48596247D01*
X34738095Y-48596247D02*
X34738095Y-48453390D01*
X34738095Y-48453390D02*
X34785714Y-48262914D01*
X34785714Y-48262914D02*
X34833333Y-48167676D01*
X34833333Y-48167676D02*
X34928571Y-48072438D01*
X34928571Y-48072438D02*
X35071428Y-48024819D01*
X35071428Y-48024819D02*
X35166666Y-48024819D01*
X35166666Y-48024819D02*
X35309523Y-48072438D01*
X35309523Y-48072438D02*
X35357142Y-48120057D01*
X36309523Y-49024819D02*
X35738095Y-49024819D01*
X36023809Y-49024819D02*
X36023809Y-48024819D01*
X36023809Y-48024819D02*
X35928571Y-48167676D01*
X35928571Y-48167676D02*
X35833333Y-48262914D01*
X35833333Y-48262914D02*
X35738095Y-48310533D01*
X36642857Y-48024819D02*
X37261904Y-48024819D01*
X37261904Y-48024819D02*
X36928571Y-48405771D01*
X36928571Y-48405771D02*
X37071428Y-48405771D01*
X37071428Y-48405771D02*
X37166666Y-48453390D01*
X37166666Y-48453390D02*
X37214285Y-48501009D01*
X37214285Y-48501009D02*
X37261904Y-48596247D01*
X37261904Y-48596247D02*
X37261904Y-48834342D01*
X37261904Y-48834342D02*
X37214285Y-48929580D01*
X37214285Y-48929580D02*
X37166666Y-48977200D01*
X37166666Y-48977200D02*
X37071428Y-49024819D01*
X37071428Y-49024819D02*
X36785714Y-49024819D01*
X36785714Y-49024819D02*
X36690476Y-48977200D01*
X36690476Y-48977200D02*
X36642857Y-48929580D01*
X19833333Y-49024819D02*
X19500000Y-48548628D01*
X19261905Y-49024819D02*
X19261905Y-48024819D01*
X19261905Y-48024819D02*
X19642857Y-48024819D01*
X19642857Y-48024819D02*
X19738095Y-48072438D01*
X19738095Y-48072438D02*
X19785714Y-48120057D01*
X19785714Y-48120057D02*
X19833333Y-48215295D01*
X19833333Y-48215295D02*
X19833333Y-48358152D01*
X19833333Y-48358152D02*
X19785714Y-48453390D01*
X19785714Y-48453390D02*
X19738095Y-48501009D01*
X19738095Y-48501009D02*
X19642857Y-48548628D01*
X19642857Y-48548628D02*
X19261905Y-48548628D01*
X20214286Y-48120057D02*
X20261905Y-48072438D01*
X20261905Y-48072438D02*
X20357143Y-48024819D01*
X20357143Y-48024819D02*
X20595238Y-48024819D01*
X20595238Y-48024819D02*
X20690476Y-48072438D01*
X20690476Y-48072438D02*
X20738095Y-48120057D01*
X20738095Y-48120057D02*
X20785714Y-48215295D01*
X20785714Y-48215295D02*
X20785714Y-48310533D01*
X20785714Y-48310533D02*
X20738095Y-48453390D01*
X20738095Y-48453390D02*
X20166667Y-49024819D01*
X20166667Y-49024819D02*
X20785714Y-49024819D01*
X50833333Y-58929580D02*
X50785714Y-58977200D01*
X50785714Y-58977200D02*
X50642857Y-59024819D01*
X50642857Y-59024819D02*
X50547619Y-59024819D01*
X50547619Y-59024819D02*
X50404762Y-58977200D01*
X50404762Y-58977200D02*
X50309524Y-58881961D01*
X50309524Y-58881961D02*
X50261905Y-58786723D01*
X50261905Y-58786723D02*
X50214286Y-58596247D01*
X50214286Y-58596247D02*
X50214286Y-58453390D01*
X50214286Y-58453390D02*
X50261905Y-58262914D01*
X50261905Y-58262914D02*
X50309524Y-58167676D01*
X50309524Y-58167676D02*
X50404762Y-58072438D01*
X50404762Y-58072438D02*
X50547619Y-58024819D01*
X50547619Y-58024819D02*
X50642857Y-58024819D01*
X50642857Y-58024819D02*
X50785714Y-58072438D01*
X50785714Y-58072438D02*
X50833333Y-58120057D01*
X51690476Y-58358152D02*
X51690476Y-59024819D01*
X51452381Y-57977200D02*
X51214286Y-58691485D01*
X51214286Y-58691485D02*
X51833333Y-58691485D01*
X35357142Y-66929580D02*
X35309523Y-66977200D01*
X35309523Y-66977200D02*
X35166666Y-67024819D01*
X35166666Y-67024819D02*
X35071428Y-67024819D01*
X35071428Y-67024819D02*
X34928571Y-66977200D01*
X34928571Y-66977200D02*
X34833333Y-66881961D01*
X34833333Y-66881961D02*
X34785714Y-66786723D01*
X34785714Y-66786723D02*
X34738095Y-66596247D01*
X34738095Y-66596247D02*
X34738095Y-66453390D01*
X34738095Y-66453390D02*
X34785714Y-66262914D01*
X34785714Y-66262914D02*
X34833333Y-66167676D01*
X34833333Y-66167676D02*
X34928571Y-66072438D01*
X34928571Y-66072438D02*
X35071428Y-66024819D01*
X35071428Y-66024819D02*
X35166666Y-66024819D01*
X35166666Y-66024819D02*
X35309523Y-66072438D01*
X35309523Y-66072438D02*
X35357142Y-66120057D01*
X36309523Y-67024819D02*
X35738095Y-67024819D01*
X36023809Y-67024819D02*
X36023809Y-66024819D01*
X36023809Y-66024819D02*
X35928571Y-66167676D01*
X35928571Y-66167676D02*
X35833333Y-66262914D01*
X35833333Y-66262914D02*
X35738095Y-66310533D01*
X37166666Y-66358152D02*
X37166666Y-67024819D01*
X36928571Y-65977200D02*
X36690476Y-66691485D01*
X36690476Y-66691485D02*
X37309523Y-66691485D01*
X50357142Y-42929580D02*
X50309523Y-42977200D01*
X50309523Y-42977200D02*
X50166666Y-43024819D01*
X50166666Y-43024819D02*
X50071428Y-43024819D01*
X50071428Y-43024819D02*
X49928571Y-42977200D01*
X49928571Y-42977200D02*
X49833333Y-42881961D01*
X49833333Y-42881961D02*
X49785714Y-42786723D01*
X49785714Y-42786723D02*
X49738095Y-42596247D01*
X49738095Y-42596247D02*
X49738095Y-42453390D01*
X49738095Y-42453390D02*
X49785714Y-42262914D01*
X49785714Y-42262914D02*
X49833333Y-42167676D01*
X49833333Y-42167676D02*
X49928571Y-42072438D01*
X49928571Y-42072438D02*
X50071428Y-42024819D01*
X50071428Y-42024819D02*
X50166666Y-42024819D01*
X50166666Y-42024819D02*
X50309523Y-42072438D01*
X50309523Y-42072438D02*
X50357142Y-42120057D01*
X51309523Y-43024819D02*
X50738095Y-43024819D01*
X51023809Y-43024819D02*
X51023809Y-42024819D01*
X51023809Y-42024819D02*
X50928571Y-42167676D01*
X50928571Y-42167676D02*
X50833333Y-42262914D01*
X50833333Y-42262914D02*
X50738095Y-42310533D01*
X52166666Y-42024819D02*
X51976190Y-42024819D01*
X51976190Y-42024819D02*
X51880952Y-42072438D01*
X51880952Y-42072438D02*
X51833333Y-42120057D01*
X51833333Y-42120057D02*
X51738095Y-42262914D01*
X51738095Y-42262914D02*
X51690476Y-42453390D01*
X51690476Y-42453390D02*
X51690476Y-42834342D01*
X51690476Y-42834342D02*
X51738095Y-42929580D01*
X51738095Y-42929580D02*
X51785714Y-42977200D01*
X51785714Y-42977200D02*
X51880952Y-43024819D01*
X51880952Y-43024819D02*
X52071428Y-43024819D01*
X52071428Y-43024819D02*
X52166666Y-42977200D01*
X52166666Y-42977200D02*
X52214285Y-42929580D01*
X52214285Y-42929580D02*
X52261904Y-42834342D01*
X52261904Y-42834342D02*
X52261904Y-42596247D01*
X52261904Y-42596247D02*
X52214285Y-42501009D01*
X52214285Y-42501009D02*
X52166666Y-42453390D01*
X52166666Y-42453390D02*
X52071428Y-42405771D01*
X52071428Y-42405771D02*
X51880952Y-42405771D01*
X51880952Y-42405771D02*
X51785714Y-42453390D01*
X51785714Y-42453390D02*
X51738095Y-42501009D01*
X51738095Y-42501009D02*
X51690476Y-42596247D01*
X9833333Y-42929580D02*
X9785714Y-42977200D01*
X9785714Y-42977200D02*
X9642857Y-43024819D01*
X9642857Y-43024819D02*
X9547619Y-43024819D01*
X9547619Y-43024819D02*
X9404762Y-42977200D01*
X9404762Y-42977200D02*
X9309524Y-42881961D01*
X9309524Y-42881961D02*
X9261905Y-42786723D01*
X9261905Y-42786723D02*
X9214286Y-42596247D01*
X9214286Y-42596247D02*
X9214286Y-42453390D01*
X9214286Y-42453390D02*
X9261905Y-42262914D01*
X9261905Y-42262914D02*
X9309524Y-42167676D01*
X9309524Y-42167676D02*
X9404762Y-42072438D01*
X9404762Y-42072438D02*
X9547619Y-42024819D01*
X9547619Y-42024819D02*
X9642857Y-42024819D01*
X9642857Y-42024819D02*
X9785714Y-42072438D01*
X9785714Y-42072438D02*
X9833333Y-42120057D01*
X10738095Y-42024819D02*
X10261905Y-42024819D01*
X10261905Y-42024819D02*
X10214286Y-42501009D01*
X10214286Y-42501009D02*
X10261905Y-42453390D01*
X10261905Y-42453390D02*
X10357143Y-42405771D01*
X10357143Y-42405771D02*
X10595238Y-42405771D01*
X10595238Y-42405771D02*
X10690476Y-42453390D01*
X10690476Y-42453390D02*
X10738095Y-42501009D01*
X10738095Y-42501009D02*
X10785714Y-42596247D01*
X10785714Y-42596247D02*
X10785714Y-42834342D01*
X10785714Y-42834342D02*
X10738095Y-42929580D01*
X10738095Y-42929580D02*
X10690476Y-42977200D01*
X10690476Y-42977200D02*
X10595238Y-43024819D01*
X10595238Y-43024819D02*
X10357143Y-43024819D01*
X10357143Y-43024819D02*
X10261905Y-42977200D01*
X10261905Y-42977200D02*
X10214286Y-42929580D01*
X57214285Y-39381009D02*
X57357142Y-39428628D01*
X57357142Y-39428628D02*
X57404761Y-39476247D01*
X57404761Y-39476247D02*
X57452380Y-39571485D01*
X57452380Y-39571485D02*
X57452380Y-39714342D01*
X57452380Y-39714342D02*
X57404761Y-39809580D01*
X57404761Y-39809580D02*
X57357142Y-39857200D01*
X57357142Y-39857200D02*
X57261904Y-39904819D01*
X57261904Y-39904819D02*
X56880952Y-39904819D01*
X56880952Y-39904819D02*
X56880952Y-38904819D01*
X56880952Y-38904819D02*
X57214285Y-38904819D01*
X57214285Y-38904819D02*
X57309523Y-38952438D01*
X57309523Y-38952438D02*
X57357142Y-39000057D01*
X57357142Y-39000057D02*
X57404761Y-39095295D01*
X57404761Y-39095295D02*
X57404761Y-39190533D01*
X57404761Y-39190533D02*
X57357142Y-39285771D01*
X57357142Y-39285771D02*
X57309523Y-39333390D01*
X57309523Y-39333390D02*
X57214285Y-39381009D01*
X57214285Y-39381009D02*
X56880952Y-39381009D01*
X57738095Y-38904819D02*
X58309523Y-38904819D01*
X58023809Y-39904819D02*
X58023809Y-38904819D01*
X59166666Y-39904819D02*
X58595238Y-39904819D01*
X58880952Y-39904819D02*
X58880952Y-38904819D01*
X58880952Y-38904819D02*
X58785714Y-39047676D01*
X58785714Y-39047676D02*
X58690476Y-39142914D01*
X58690476Y-39142914D02*
X58595238Y-39190533D01*
X14238095Y-55004819D02*
X14238095Y-55814342D01*
X14238095Y-55814342D02*
X14285714Y-55909580D01*
X14285714Y-55909580D02*
X14333333Y-55957200D01*
X14333333Y-55957200D02*
X14428571Y-56004819D01*
X14428571Y-56004819D02*
X14619047Y-56004819D01*
X14619047Y-56004819D02*
X14714285Y-55957200D01*
X14714285Y-55957200D02*
X14761904Y-55909580D01*
X14761904Y-55909580D02*
X14809523Y-55814342D01*
X14809523Y-55814342D02*
X14809523Y-55004819D01*
X15190476Y-55004819D02*
X15857142Y-55004819D01*
X15857142Y-55004819D02*
X15428571Y-56004819D01*
X30238095Y-16454819D02*
X30238095Y-17264342D01*
X30238095Y-17264342D02*
X30285714Y-17359580D01*
X30285714Y-17359580D02*
X30333333Y-17407200D01*
X30333333Y-17407200D02*
X30428571Y-17454819D01*
X30428571Y-17454819D02*
X30619047Y-17454819D01*
X30619047Y-17454819D02*
X30714285Y-17407200D01*
X30714285Y-17407200D02*
X30761904Y-17359580D01*
X30761904Y-17359580D02*
X30809523Y-17264342D01*
X30809523Y-17264342D02*
X30809523Y-16454819D01*
X31809523Y-17454819D02*
X31238095Y-17454819D01*
X31523809Y-17454819D02*
X31523809Y-16454819D01*
X31523809Y-16454819D02*
X31428571Y-16597676D01*
X31428571Y-16597676D02*
X31333333Y-16692914D01*
X31333333Y-16692914D02*
X31238095Y-16740533D01*
X19865700Y-21194819D02*
X19865700Y-21432914D01*
X19627605Y-21337676D02*
X19865700Y-21432914D01*
X19865700Y-21432914D02*
X20103795Y-21337676D01*
X19722843Y-21623390D02*
X19865700Y-21432914D01*
X19865700Y-21432914D02*
X20008557Y-21623390D01*
X15666666Y-3474819D02*
X15666666Y-4189104D01*
X15666666Y-4189104D02*
X15619047Y-4331961D01*
X15619047Y-4331961D02*
X15523809Y-4427200D01*
X15523809Y-4427200D02*
X15380952Y-4474819D01*
X15380952Y-4474819D02*
X15285714Y-4474819D01*
X16095238Y-3570057D02*
X16142857Y-3522438D01*
X16142857Y-3522438D02*
X16238095Y-3474819D01*
X16238095Y-3474819D02*
X16476190Y-3474819D01*
X16476190Y-3474819D02*
X16571428Y-3522438D01*
X16571428Y-3522438D02*
X16619047Y-3570057D01*
X16619047Y-3570057D02*
X16666666Y-3665295D01*
X16666666Y-3665295D02*
X16666666Y-3760533D01*
X16666666Y-3760533D02*
X16619047Y-3903390D01*
X16619047Y-3903390D02*
X16047619Y-4474819D01*
X16047619Y-4474819D02*
X16666666Y-4474819D01*
X49833333Y-63789580D02*
X49785714Y-63837200D01*
X49785714Y-63837200D02*
X49642857Y-63884819D01*
X49642857Y-63884819D02*
X49547619Y-63884819D01*
X49547619Y-63884819D02*
X49404762Y-63837200D01*
X49404762Y-63837200D02*
X49309524Y-63741961D01*
X49309524Y-63741961D02*
X49261905Y-63646723D01*
X49261905Y-63646723D02*
X49214286Y-63456247D01*
X49214286Y-63456247D02*
X49214286Y-63313390D01*
X49214286Y-63313390D02*
X49261905Y-63122914D01*
X49261905Y-63122914D02*
X49309524Y-63027676D01*
X49309524Y-63027676D02*
X49404762Y-62932438D01*
X49404762Y-62932438D02*
X49547619Y-62884819D01*
X49547619Y-62884819D02*
X49642857Y-62884819D01*
X49642857Y-62884819D02*
X49785714Y-62932438D01*
X49785714Y-62932438D02*
X49833333Y-62980057D01*
X50404762Y-63313390D02*
X50309524Y-63265771D01*
X50309524Y-63265771D02*
X50261905Y-63218152D01*
X50261905Y-63218152D02*
X50214286Y-63122914D01*
X50214286Y-63122914D02*
X50214286Y-63075295D01*
X50214286Y-63075295D02*
X50261905Y-62980057D01*
X50261905Y-62980057D02*
X50309524Y-62932438D01*
X50309524Y-62932438D02*
X50404762Y-62884819D01*
X50404762Y-62884819D02*
X50595238Y-62884819D01*
X50595238Y-62884819D02*
X50690476Y-62932438D01*
X50690476Y-62932438D02*
X50738095Y-62980057D01*
X50738095Y-62980057D02*
X50785714Y-63075295D01*
X50785714Y-63075295D02*
X50785714Y-63122914D01*
X50785714Y-63122914D02*
X50738095Y-63218152D01*
X50738095Y-63218152D02*
X50690476Y-63265771D01*
X50690476Y-63265771D02*
X50595238Y-63313390D01*
X50595238Y-63313390D02*
X50404762Y-63313390D01*
X50404762Y-63313390D02*
X50309524Y-63361009D01*
X50309524Y-63361009D02*
X50261905Y-63408628D01*
X50261905Y-63408628D02*
X50214286Y-63503866D01*
X50214286Y-63503866D02*
X50214286Y-63694342D01*
X50214286Y-63694342D02*
X50261905Y-63789580D01*
X50261905Y-63789580D02*
X50309524Y-63837200D01*
X50309524Y-63837200D02*
X50404762Y-63884819D01*
X50404762Y-63884819D02*
X50595238Y-63884819D01*
X50595238Y-63884819D02*
X50690476Y-63837200D01*
X50690476Y-63837200D02*
X50738095Y-63789580D01*
X50738095Y-63789580D02*
X50785714Y-63694342D01*
X50785714Y-63694342D02*
X50785714Y-63503866D01*
X50785714Y-63503866D02*
X50738095Y-63408628D01*
X50738095Y-63408628D02*
X50690476Y-63361009D01*
X50690476Y-63361009D02*
X50595238Y-63313390D01*
X15666666Y-75474819D02*
X15666666Y-76189104D01*
X15666666Y-76189104D02*
X15619047Y-76331961D01*
X15619047Y-76331961D02*
X15523809Y-76427200D01*
X15523809Y-76427200D02*
X15380952Y-76474819D01*
X15380952Y-76474819D02*
X15285714Y-76474819D01*
X16571428Y-75808152D02*
X16571428Y-76474819D01*
X16333333Y-75427200D02*
X16095238Y-76141485D01*
X16095238Y-76141485D02*
X16714285Y-76141485D01*
X10357142Y-18929580D02*
X10309523Y-18977200D01*
X10309523Y-18977200D02*
X10166666Y-19024819D01*
X10166666Y-19024819D02*
X10071428Y-19024819D01*
X10071428Y-19024819D02*
X9928571Y-18977200D01*
X9928571Y-18977200D02*
X9833333Y-18881961D01*
X9833333Y-18881961D02*
X9785714Y-18786723D01*
X9785714Y-18786723D02*
X9738095Y-18596247D01*
X9738095Y-18596247D02*
X9738095Y-18453390D01*
X9738095Y-18453390D02*
X9785714Y-18262914D01*
X9785714Y-18262914D02*
X9833333Y-18167676D01*
X9833333Y-18167676D02*
X9928571Y-18072438D01*
X9928571Y-18072438D02*
X10071428Y-18024819D01*
X10071428Y-18024819D02*
X10166666Y-18024819D01*
X10166666Y-18024819D02*
X10309523Y-18072438D01*
X10309523Y-18072438D02*
X10357142Y-18120057D01*
X11309523Y-19024819D02*
X10738095Y-19024819D01*
X11023809Y-19024819D02*
X11023809Y-18024819D01*
X11023809Y-18024819D02*
X10928571Y-18167676D01*
X10928571Y-18167676D02*
X10833333Y-18262914D01*
X10833333Y-18262914D02*
X10738095Y-18310533D01*
X12214285Y-18024819D02*
X11738095Y-18024819D01*
X11738095Y-18024819D02*
X11690476Y-18501009D01*
X11690476Y-18501009D02*
X11738095Y-18453390D01*
X11738095Y-18453390D02*
X11833333Y-18405771D01*
X11833333Y-18405771D02*
X12071428Y-18405771D01*
X12071428Y-18405771D02*
X12166666Y-18453390D01*
X12166666Y-18453390D02*
X12214285Y-18501009D01*
X12214285Y-18501009D02*
X12261904Y-18596247D01*
X12261904Y-18596247D02*
X12261904Y-18834342D01*
X12261904Y-18834342D02*
X12214285Y-18929580D01*
X12214285Y-18929580D02*
X12166666Y-18977200D01*
X12166666Y-18977200D02*
X12071428Y-19024819D01*
X12071428Y-19024819D02*
X11833333Y-19024819D01*
X11833333Y-19024819D02*
X11738095Y-18977200D01*
X11738095Y-18977200D02*
X11690476Y-18929580D01*
D12*
%TO.C,C3*%
X50859420Y-55490000D02*
X51140580Y-55490000D01*
X50859420Y-56510000D02*
X51140580Y-56510000D01*
%TO.C,U6*%
X45000000Y-42390000D02*
X43500000Y-42390000D01*
X45000000Y-42390000D02*
X46500000Y-42390000D01*
X45000000Y-45610000D02*
X43500000Y-45610000D01*
X45000000Y-45610000D02*
X46500000Y-45610000D01*
X42787500Y-42590000D02*
X42547500Y-42260000D01*
X43027500Y-42260000D01*
X42787500Y-42590000D01*
G36*
X42787500Y-42590000D02*
G01*
X42547500Y-42260000D01*
X43027500Y-42260000D01*
X42787500Y-42590000D01*
G37*
%TO.C,R1*%
X10762742Y-29477500D02*
X11237258Y-29477500D01*
X10762742Y-30522500D02*
X11237258Y-30522500D01*
D13*
%TO.C,U2*%
X28323600Y-66323600D02*
X28323600Y-66790259D01*
X28323600Y-69209741D02*
X28323600Y-69676400D01*
X28323600Y-69676400D02*
X28790259Y-69676400D01*
X28790259Y-66323600D02*
X28323600Y-66323600D01*
X31209741Y-69676400D02*
X31676400Y-69676400D01*
X31676400Y-66323600D02*
X31209741Y-66323600D01*
X31676400Y-66790259D02*
X31676400Y-66323600D01*
X31676400Y-69676400D02*
X31676400Y-69209741D01*
D14*
G36*
X32362200Y-68440500D02*
G01*
X32108200Y-68440500D01*
X32108200Y-68059499D01*
X32362200Y-68059499D01*
X32362200Y-68440500D01*
G37*
D12*
%TO.C,C7*%
X9859420Y-57490000D02*
X10140580Y-57490000D01*
X9859420Y-58510000D02*
X10140580Y-58510000D01*
%TO.C,C18*%
X10859420Y-33490000D02*
X11140580Y-33490000D01*
X10859420Y-34510000D02*
X11140580Y-34510000D01*
%TO.C,U5*%
X30000000Y-45965000D02*
X27800000Y-45965000D01*
X30000000Y-45965000D02*
X32200000Y-45965000D01*
X30000000Y-54035000D02*
X27800000Y-54035000D01*
X30000000Y-54035000D02*
X32200000Y-54035000D01*
X26140000Y-46425000D02*
X25810000Y-46665000D01*
X25810000Y-46185000D01*
X26140000Y-46425000D01*
G36*
X26140000Y-46425000D02*
G01*
X25810000Y-46665000D01*
X25810000Y-46185000D01*
X26140000Y-46425000D01*
G37*
%TO.C,C2*%
X50859420Y-51490000D02*
X51140580Y-51490000D01*
X50859420Y-52510000D02*
X51140580Y-52510000D01*
%TO.C,C1*%
X50859420Y-47490000D02*
X51140580Y-47490000D01*
X50859420Y-48510000D02*
X51140580Y-48510000D01*
%TO.C,C6*%
X50859420Y-39490000D02*
X51140580Y-39490000D01*
X50859420Y-40510000D02*
X51140580Y-40510000D01*
%TO.C,J5*%
X39390000Y-78215000D02*
X40440000Y-78215000D01*
X39390000Y-80715000D02*
X39390000Y-78215000D01*
X40440000Y-78215000D02*
X40440000Y-77225000D01*
X40560000Y-82685000D02*
X47440000Y-82685000D01*
X48610000Y-78215000D02*
X47560000Y-78215000D01*
X48610000Y-80715000D02*
X48610000Y-78215000D01*
D15*
X40225000Y-78000000D02*
G75*
G02*
X39975000Y-78000000I-125000J0D01*
G01*
X39975000Y-78000000D02*
G75*
G02*
X40225000Y-78000000I125000J0D01*
G01*
D12*
%TO.C,U3*%
X15000000Y-42390000D02*
X13500000Y-42390000D01*
X15000000Y-42390000D02*
X16500000Y-42390000D01*
X15000000Y-45610000D02*
X13500000Y-45610000D01*
X15000000Y-45610000D02*
X16500000Y-45610000D01*
X12787500Y-42590000D02*
X12547500Y-42260000D01*
X13027500Y-42260000D01*
X12787500Y-42590000D01*
G36*
X12787500Y-42590000D02*
G01*
X12547500Y-42260000D01*
X13027500Y-42260000D01*
X12787500Y-42590000D01*
G37*
%TO.C,J1*%
X57500000Y-18500000D02*
X60500000Y-18500000D01*
X60500000Y-36000000D01*
X57500000Y-36000000D01*
X57500000Y-18500000D01*
%TO.C,J3*%
X38390000Y-6215000D02*
X39440000Y-6215000D01*
X38390000Y-8715000D02*
X38390000Y-6215000D01*
X39440000Y-6215000D02*
X39440000Y-5225000D01*
X39560000Y-10685000D02*
X48440000Y-10685000D01*
X49610000Y-6215000D02*
X48560000Y-6215000D01*
X49610000Y-8715000D02*
X49610000Y-6215000D01*
D15*
X39125000Y-6000000D02*
G75*
G02*
X38875000Y-6000000I-125000J0D01*
G01*
X38875000Y-6000000D02*
G75*
G02*
X39125000Y-6000000I125000J0D01*
G01*
D12*
%TO.C,C17*%
X10859420Y-23490000D02*
X11140580Y-23490000D01*
X10859420Y-24510000D02*
X11140580Y-24510000D01*
%TO.C,LD1*%
X55670000Y-50670000D02*
X57000000Y-50670000D01*
X55670000Y-52000000D02*
X55670000Y-50670000D01*
X55670000Y-53270000D02*
X55670000Y-58410000D01*
X55670000Y-53270000D02*
X58330000Y-53270000D01*
X55670000Y-58410000D02*
X58330000Y-58410000D01*
X58330000Y-53270000D02*
X58330000Y-58410000D01*
%TO.C,U8*%
X45000000Y-56390000D02*
X43500000Y-56390000D01*
X45000000Y-56390000D02*
X46500000Y-56390000D01*
X45000000Y-59610000D02*
X43500000Y-59610000D01*
X45000000Y-59610000D02*
X46500000Y-59610000D01*
X42787500Y-56590000D02*
X42547500Y-56260000D01*
X43027500Y-56260000D01*
X42787500Y-56590000D01*
G36*
X42787500Y-56590000D02*
G01*
X42547500Y-56260000D01*
X43027500Y-56260000D01*
X42787500Y-56590000D01*
G37*
%TO.C,C13*%
X35859420Y-49490000D02*
X36140580Y-49490000D01*
X35859420Y-50510000D02*
X36140580Y-50510000D01*
%TO.C,R2*%
X19762742Y-49477500D02*
X20237258Y-49477500D01*
X19762742Y-50522500D02*
X20237258Y-50522500D01*
%TO.C,C4*%
X50859420Y-59490000D02*
X51140580Y-59490000D01*
X50859420Y-60510000D02*
X51140580Y-60510000D01*
%TO.C,C14*%
X35859420Y-67490000D02*
X36140580Y-67490000D01*
X35859420Y-68510000D02*
X36140580Y-68510000D01*
%TO.C,C16*%
X50859420Y-43490000D02*
X51140580Y-43490000D01*
X50859420Y-44510000D02*
X51140580Y-44510000D01*
%TO.C,C5*%
X9859420Y-43490000D02*
X10140580Y-43490000D01*
X9859420Y-44510000D02*
X10140580Y-44510000D01*
%TO.C,BT1*%
X54940000Y-40540000D02*
X54940000Y-48360000D01*
X54940000Y-42140000D02*
X55860000Y-42140000D01*
X54940000Y-48360000D02*
X61060000Y-48360000D01*
X55700000Y-44500000D02*
X55700000Y-46100000D01*
X55700000Y-46100000D02*
X56700000Y-46100000D01*
X55860000Y-40540000D02*
X54940000Y-40540000D01*
X55860000Y-42140000D02*
X55860000Y-40540000D01*
X56140000Y-42140000D02*
X55860000Y-42140000D01*
X56140000Y-42140000D02*
X56140000Y-40925000D01*
X56200000Y-46100000D02*
X56200000Y-48360000D01*
X56700000Y-44500000D02*
X55700000Y-44500000D01*
X56700000Y-46100000D02*
X56700000Y-44500000D01*
X56700000Y-46100000D02*
X56700000Y-48360000D01*
X57500000Y-44000000D02*
X58500000Y-44000000D01*
X57500000Y-48360000D02*
X57500000Y-44000000D01*
X58500000Y-44000000D02*
X58500000Y-48360000D01*
X59300000Y-44500000D02*
X60300000Y-44500000D01*
X59300000Y-46100000D02*
X59300000Y-44500000D01*
X60140000Y-40540000D02*
X60140000Y-42140000D01*
X60140000Y-42140000D02*
X59860000Y-42140000D01*
X60300000Y-44500000D02*
X60300000Y-46100000D01*
X60300000Y-46100000D02*
X59300000Y-46100000D01*
X61060000Y-40540000D02*
X60140000Y-40540000D01*
X61060000Y-42140000D02*
X60140000Y-42140000D01*
X61060000Y-48360000D02*
X61060000Y-40540000D01*
%TO.C,U7*%
X15000000Y-56390000D02*
X13500000Y-56390000D01*
X15000000Y-56390000D02*
X16500000Y-56390000D01*
X15000000Y-59610000D02*
X13500000Y-59610000D01*
X15000000Y-59610000D02*
X16500000Y-59610000D01*
X12787500Y-56590000D02*
X12547500Y-56260000D01*
X13027500Y-56260000D01*
X12787500Y-56590000D01*
G36*
X12787500Y-56590000D02*
G01*
X12547500Y-56260000D01*
X13027500Y-56260000D01*
X12787500Y-56590000D01*
G37*
D13*
%TO.C,U1*%
X20868700Y-14122200D02*
X20868700Y-21000860D01*
X20868700Y-38989140D02*
X20868700Y-39877800D01*
X20868700Y-39877800D02*
X22275860Y-39877800D01*
X37724140Y-39877800D02*
X39131300Y-39877800D01*
X39131300Y-14122200D02*
X20868700Y-14122200D01*
X39131300Y-21000860D02*
X39131300Y-14122200D01*
X39131300Y-39877800D02*
X39131300Y-38989140D01*
D12*
%TO.C,J2*%
X10390000Y-6215000D02*
X11440000Y-6215000D01*
X10390000Y-8715000D02*
X10390000Y-6215000D01*
X11440000Y-6215000D02*
X11440000Y-5225000D01*
X11560000Y-10685000D02*
X20440000Y-10685000D01*
X21610000Y-6215000D02*
X20560000Y-6215000D01*
X21610000Y-8715000D02*
X21610000Y-6215000D01*
D15*
X11125000Y-6000000D02*
G75*
G02*
X10875000Y-6000000I-125000J0D01*
G01*
X10875000Y-6000000D02*
G75*
G02*
X11125000Y-6000000I125000J0D01*
G01*
D12*
%TO.C,C8*%
X49859420Y-61490000D02*
X50140580Y-61490000D01*
X49859420Y-62510000D02*
X50140580Y-62510000D01*
%TO.C,J4*%
X11390000Y-78215000D02*
X12440000Y-78215000D01*
X11390000Y-80715000D02*
X11390000Y-78215000D01*
X12440000Y-78215000D02*
X12440000Y-77225000D01*
X12560000Y-82685000D02*
X19440000Y-82685000D01*
X20610000Y-78215000D02*
X19560000Y-78215000D01*
X20610000Y-80715000D02*
X20610000Y-78215000D01*
D15*
X12225000Y-78000000D02*
G75*
G02*
X11975000Y-78000000I-125000J0D01*
G01*
X11975000Y-78000000D02*
G75*
G02*
X12225000Y-78000000I125000J0D01*
G01*
D12*
%TO.C,C15*%
X10859420Y-19490000D02*
X11140580Y-19490000D01*
X10859420Y-20510000D02*
X11140580Y-20510000D01*
%TD*%
M02*
