%TF.GenerationSoftware,KiCad,Pcbnew,8.0.0*%
%TF.CreationDate,2026-09-16T17:55:27-04:00*%
%TF.ProjectId,EchoSafe_FrontRight,4563686f-5361-4666-955f-46726f6e7452,rev?*%
%TF.SameCoordinates,Original*%
%TF.FileFunction,Copper,L2,Bot*%
%TF.FilePolarity,Positive*%
%FSLAX46Y46*%
G04 Gerber Fmt 4.6, Leading zero omitted, Abs format (unit mm)*
G04 Created by KiCad (PCBNEW 8.0.0) date 2026-09-16 17:55:27*
%MOMM*%
%LPD*%
G01*
G04 APERTURE LIST*
%TA.AperFunction,ViaPad*%
%ADD10C,0.600000*%
%TD*%
%TA.AperFunction,Conductor*%
%ADD11C,0.200000*%
%TD*%
G04 APERTURE END LIST*
D10*
%TO.N,MIC_TOP_WS*%
X23000000Y-28692300D03*
X32900000Y-6088500D03*
%TO.N,MIC_TOP_SCK*%
X31822400Y-9052600D03*
X24000000Y-28721000D03*
%TO.N,MIC_TOP_SD*%
X32000000Y-6092300D03*
X25000000Y-28716500D03*
%TO.N,GND*%
X33729400Y-7695000D03*
X27000000Y-28704500D03*
%TO.N,3V3_SYS*%
X26000000Y-28707000D03*
X33294800Y-10659400D03*
%TO.N,SPK_OUTP*%
X40684600Y-9540400D03*
X30000000Y-28709600D03*
%TO.N,SPK_OUTN*%
X40346900Y-7924000D03*
X31815700Y-30000000D03*
%TD*%
D11*
%TO.N,MIC_TOP_WS*%
X32083800Y-6904700D02*
X32900000Y-6088500D01*
X31903700Y-6904700D02*
X32083800Y-6904700D01*
X23000000Y-15808400D02*
X31903700Y-6904700D01*
X23000000Y-28692300D02*
X23000000Y-15808400D01*
%TO.N,MIC_TOP_SCK*%
X24000000Y-28721000D02*
X24000000Y-16875000D01*
X24000000Y-16875000D02*
X31822400Y-9052600D01*
%TO.N,MIC_TOP_SD*%
X32000000Y-6092300D02*
X32621600Y-5470700D01*
X33151000Y-5470700D02*
X33511000Y-5830700D01*
X25000000Y-17547600D02*
X25000000Y-28716500D01*
X33042300Y-9505300D02*
X25000000Y-17547600D01*
X33511000Y-5830700D02*
X33511000Y-6594100D01*
X33511000Y-6594100D02*
X33042300Y-7062800D01*
X32621600Y-5470700D02*
X33151000Y-5470700D01*
X33042300Y-7062800D02*
X33042300Y-9505300D01*
%TO.N,GND*%
X27000000Y-17919900D02*
X33906700Y-11013200D01*
X27000000Y-28704500D02*
X27000000Y-17919900D01*
X33906700Y-7872300D02*
X33729400Y-7695000D01*
X33906700Y-11013200D02*
X33906700Y-7872300D01*
%TO.N,3V3_SYS*%
X26000000Y-28707000D02*
X26000000Y-17954200D01*
X26000000Y-17954200D02*
X33294800Y-10659400D01*
%TO.N,SPK_OUTP*%
X40684600Y-9540400D02*
X40684600Y-22036100D01*
X30000000Y-29077200D02*
X30000000Y-28709600D01*
X40684600Y-22036100D02*
X32051200Y-30669500D01*
X31592300Y-30669500D02*
X30000000Y-29077200D01*
X32051200Y-30669500D02*
X31592300Y-30669500D01*
%TO.N,SPK_OUTN*%
X31815700Y-30000000D02*
X31815700Y-16455200D01*
X31815700Y-16455200D02*
X40346900Y-7924000D01*
%TD*%
M02*
